<svg width="1185" height="514" viewBox="0 0 1185 514" fill="none" xmlns="http://www.w3.org/2000/svg">
<rect x="173" y="38" width="69" height="71" rx="3" fill="#777777" stroke="#262F3E" stroke-width="2"/>
<rect x="243" y="38" width="69" height="71" rx="3" fill="#777777" stroke="#262F3E" stroke-width="2"/>
<rect x="313" y="38" width="69" height="71" rx="3" fill="#777777" stroke="#262F3E" stroke-width="2"/>
<rect x="383" y="38" width="69" height="71" rx="3" fill="#777777" stroke="#262F3E" stroke-width="2"/>
<rect x="474" y="38" width="69" height="71" rx="3" fill="#777777" stroke="#262F3E" stroke-width="2"/>
<rect x="544" y="38" width="69" height="71" rx="3" fill="#777777" stroke="#262F3E" stroke-width="2"/>
<rect x="614" y="38" width="69" height="71" rx="3" fill="#777777" stroke="#262F3E" stroke-width="2"/>
<rect x="684" y="38" width="69" height="71" rx="3" fill="#777777" stroke="#262F3E" stroke-width="2"/>
<rect x="34" y="38" width="69" height="71" rx="3" fill="#777777" stroke="#262F3E" stroke-width="2"/>
<rect x="775" y="38" width="69" height="71" rx="3" fill="#777777" stroke="#262F3E" stroke-width="2"/>
<rect x="845" y="38" width="69" height="71" rx="3" fill="#777777" stroke="#262F3E" stroke-width="2"/>
<rect x="915" y="38" width="69" height="71" rx="3" fill="#777777" stroke="#262F3E" stroke-width="2"/>
<rect x="985" y="38" width="69" height="71" rx="3" fill="#777777" stroke="#262F3E" stroke-width="2"/>
<line x1="225" y1="38" x2="391" y2="38" stroke="#262F3E" stroke-width="2"/>
<line x1="225" y1="109" x2="391" y2="109" stroke="#262F3E" stroke-width="2"/>
<line x1="525" y1="38" x2="691" y2="38" stroke="#262F3E" stroke-width="2"/>
<line x1="525" y1="109" x2="691" y2="109" stroke="#262F3E" stroke-width="2"/>
<line x1="835" y1="38" x2="1001" y2="38" stroke="#262F3E" stroke-width="2"/>
<line x1="835" y1="109" x2="1001" y2="109" stroke="#262F3E" stroke-width="2"/>
</svg>
