<svg width="1205" height="534" viewBox="0 0 1205 534" fill="none" xmlns="http://www.w3.org/2000/svg">
<g filter="url(#filter0_d_35_77)">
<rect x="6.5" y="6.5" width="1182" height="511" rx="27.5" stroke="#262F3E" stroke-opacity="0.01" stroke-width="3" shape-rendering="crispEdges"/>
</g>
<mask id="mask0_35_77" style="mask-type:alpha" maskUnits="userSpaceOnUse" x="37" y="42" width="1116" height="440">
<path d="M38 140C38 138.343 39.3431 137 41 137H1149C1150.66 137 1152 138.343 1152 140V478C1152 479.657 1150.66 481 1149 481H947C945.343 481 944 479.657 944 478V415C944 413.343 942.657 412 941 412H913.5C911.843 412 910.5 413.343 910.5 415V478C910.5 479.657 909.157 481 907.5 481H41C39.3432 481 38 479.657 38 478V140Z" stroke="#262F3E" stroke-width="2"/>
<rect x="178" y="43" width="279" height="71" rx="3" stroke="#262F3E" stroke-width="2"/>
<rect x="479" y="43" width="279" height="71" rx="3" stroke="#262F3E" stroke-width="2"/>
<rect x="781" y="43" width="279" height="71" rx="3" stroke="#262F3E" stroke-width="2"/>
<rect x="598" y="137" width="69" height="71" rx="3" stroke="#262F3E" stroke-width="2"/>
<rect x="668" y="137" width="69" height="71" rx="3" stroke="#262F3E" stroke-width="2"/>
<rect x="738" y="137" width="69" height="71" rx="3" stroke="#262F3E" stroke-width="2"/>
<rect x="808" y="137" width="69" height="71" rx="3" stroke="#262F3E" stroke-width="2"/>
<rect x="878" y="137" width="69" height="71" rx="3" stroke="#262F3E" stroke-width="2"/>
<rect x="948" y="137" width="134" height="71" rx="3" stroke="#262F3E" stroke-width="2"/>
<rect x="178" y="43" width="69" height="71" rx="3" stroke="#262F3E" stroke-width="2"/>
<rect x="39" y="43" width="69" height="71" rx="3" stroke="#262F3E" stroke-width="2"/>
<rect x="248" y="43" width="69" height="71" rx="3" stroke="#262F3E" stroke-width="2"/>
<rect x="318" y="43" width="69" height="71" rx="3" stroke="#262F3E" stroke-width="2"/>
<rect x="388" y="43" width="69" height="71" rx="3" stroke="#262F3E" stroke-width="2"/>
<rect x="479" y="43" width="69" height="71" rx="3" stroke="#262F3E" stroke-width="2"/>
<rect x="781" y="43" width="69" height="71" rx="3" stroke="#262F3E" stroke-width="2"/>
<rect x="549" y="43" width="69" height="71" rx="3" stroke="#262F3E" stroke-width="2"/>
<rect x="851" y="43" width="69" height="71" rx="3" stroke="#262F3E" stroke-width="2"/>
<rect x="619" y="43" width="69" height="71" rx="3" stroke="#262F3E" stroke-width="2"/>
<rect x="921" y="43" width="69" height="71" rx="3" stroke="#262F3E" stroke-width="2"/>
<rect x="689" y="43" width="69" height="71" rx="3" stroke="#262F3E" stroke-width="2"/>
<rect x="991" y="43" width="69" height="71" rx="3" stroke="#262F3E" stroke-width="2"/>
<rect x="528" y="137" width="69" height="71" rx="3" stroke="#262F3E" stroke-width="2"/>
<rect x="458" y="137" width="69" height="71" rx="3" stroke="#262F3E" stroke-width="2"/>
<rect x="388" y="137" width="69" height="71" rx="3" stroke="#262F3E" stroke-width="2"/>
<rect x="318" y="137" width="69" height="71" rx="3" stroke="#262F3E" stroke-width="2"/>
<rect x="248" y="137" width="69" height="71" rx="3" stroke="#262F3E" stroke-width="2"/>
<rect x="178" y="137" width="69" height="71" rx="3" stroke="#262F3E" stroke-width="2"/>
<rect x="108" y="137" width="69" height="71" rx="3" stroke="#262F3E" stroke-width="2"/>
<rect x="38" y="137" width="69" height="71" rx="3" stroke="#262F3E" stroke-width="2"/>
<rect x="632.009" y="208" width="68.5788" height="65.8384" rx="3" stroke="#262F3E" stroke-width="2"/>
<rect x="562.436" y="208" width="68.5788" height="65.8384" rx="3" stroke="#262F3E" stroke-width="2"/>
<rect x="492.864" y="208" width="68.5788" height="65.8384" rx="3" stroke="#262F3E" stroke-width="2"/>
<rect x="423.291" y="208" width="68.5788" height="65.8384" rx="3" stroke="#262F3E" stroke-width="2"/>
<rect x="353.718" y="208" width="68.5788" height="65.8384" rx="3" stroke="#262F3E" stroke-width="2"/>
<rect x="284.145" y="208" width="68.5788" height="65.8384" rx="3" stroke="#262F3E" stroke-width="2"/>
<rect x="214.573" y="208" width="68.5788" height="65.8384" rx="3" stroke="#262F3E" stroke-width="2"/>
<rect x="145" y="208" width="68.5788" height="65.8384" rx="3" stroke="#262F3E" stroke-width="2"/>
<rect x="649.867" y="274" width="68.5588" height="68.8384" rx="3" stroke="#262F3E" stroke-width="2"/>
<rect x="580.315" y="274" width="68.5588" height="68.8384" rx="3" stroke="#262F3E" stroke-width="2"/>
<rect x="510.762" y="274" width="68.5588" height="68.8384" rx="3" stroke="#262F3E" stroke-width="2"/>
<rect x="441.21" y="274" width="68.5588" height="68.8384" rx="3" stroke="#262F3E" stroke-width="2"/>
<rect x="371.657" y="274" width="68.5588" height="68.8384" rx="3" stroke="#262F3E" stroke-width="2"/>
<rect x="302.105" y="274" width="68.5588" height="68.8384" rx="3" stroke="#262F3E" stroke-width="2"/>
<rect x="232.552" y="274" width="68.5588" height="68.8384" rx="3" stroke="#262F3E" stroke-width="2"/>
<rect x="163" y="274" width="68.5588" height="68.8384" rx="3" stroke="#262F3E" stroke-width="2"/>
<rect x="38" y="274" width="124.559" height="68.8384" rx="3" stroke="#262F3E" stroke-width="2"/>
<rect x="38" y="343" width="160" height="68.8384" rx="3" stroke="#262F3E" stroke-width="2"/>
<rect x="701.009" y="208" width="68.5788" height="65.8384" rx="3" stroke="#262F3E" stroke-width="2"/>
<rect x="770.009" y="208" width="68.5788" height="65.8384" rx="3" stroke="#262F3E" stroke-width="2"/>
<rect x="839.009" y="208" width="68.5788" height="65.8384" rx="3" stroke="#262F3E" stroke-width="2"/>
<rect x="908.009" y="208" width="68.5788" height="65.8384" rx="3" stroke="#262F3E" stroke-width="2"/>
<rect x="718.867" y="274" width="68.5588" height="68.8384" rx="3" stroke="#262F3E" stroke-width="2"/>
<rect x="787.867" y="274" width="68.5588" height="68.8384" rx="3" stroke="#262F3E" stroke-width="2"/>
<rect x="856.867" y="274" width="68.5588" height="68.8384" rx="3" stroke="#262F3E" stroke-width="2"/>
<rect x="926" y="274" width="156" height="69" rx="3" stroke="#262F3E" stroke-width="2"/>
<rect x="685.867" y="343" width="68.5588" height="68.8384" rx="3" stroke="#262F3E" stroke-width="2"/>
<rect x="616.315" y="343" width="68.5588" height="68.8384" rx="3" stroke="#262F3E" stroke-width="2"/>
<rect x="546.762" y="343" width="68.5588" height="68.8384" rx="3" stroke="#262F3E" stroke-width="2"/>
<rect x="477.21" y="343" width="68.5588" height="68.8384" rx="3" stroke="#262F3E" stroke-width="2"/>
<rect x="407.657" y="343" width="68.5588" height="68.8384" rx="3" stroke="#262F3E" stroke-width="2"/>
<rect x="338.105" y="343" width="68.5588" height="68.8384" rx="3" stroke="#262F3E" stroke-width="2"/>
<rect x="268.552" y="343" width="68.5588" height="68.8384" rx="3" stroke="#262F3E" stroke-width="2"/>
<rect x="823.867" y="343" width="68.5588" height="68.8384" rx="3" stroke="#262F3E" stroke-width="2"/>
<rect x="893" y="343" width="120" height="69" rx="3" stroke="#262F3E" stroke-width="2"/>
<rect x="754.867" y="343" width="68.5588" height="68.8384" rx="3" stroke="#262F3E" stroke-width="2"/>
<rect x="1013.87" y="343" width="68.5588" height="68.8384" rx="3" stroke="#262F3E" stroke-width="2"/>
<rect x="1083" y="343" width="68.5588" height="68.8384" rx="3" stroke="#262F3E" stroke-width="2"/>
<rect x="1083" y="137" width="69" height="71" rx="3" stroke="#262F3E" stroke-width="2"/>
<rect x="1083" y="274" width="68.5588" height="68.8384" rx="3" stroke="#262F3E" stroke-width="2"/>
<rect x="1083.01" y="208" width="68.5788" height="65.8384" rx="3" stroke="#262F3E" stroke-width="2"/>
<rect x="38" y="208" width="107" height="66" rx="3" stroke="#262F3E" stroke-width="2"/>
<rect x="977" y="208" width="105" height="66" rx="3" stroke="#262F3E" stroke-width="2"/>
<rect x="199" y="343" width="68.5588" height="68.8384" rx="3" stroke="#262F3E" stroke-width="2"/>
<rect x="38" y="412" width="91" height="69" rx="3" stroke="#262F3E" stroke-width="2"/>
<rect x="130" y="412" width="85" height="69" rx="3" stroke="#262F3E" stroke-width="2"/>
<rect x="216" y="412" width="85" height="69" rx="3" stroke="#262F3E" stroke-width="2"/>
<rect x="302" y="412" width="435" height="69" rx="3" stroke="#262F3E" stroke-width="2"/>
<rect x="738" y="412" width="85" height="69" rx="3" stroke="#262F3E" stroke-width="2"/>
<rect x="824" y="412" width="86" height="69" rx="3" stroke="#262F3E" stroke-width="2"/>
<rect x="1014" y="412" width="68" height="69" rx="3" stroke="#262F3E" stroke-width="2"/>
<rect x="1083" y="412" width="69" height="69" rx="3" stroke="#262F3E" stroke-width="2"/>
<rect x="944" y="412" width="69" height="69" rx="3" stroke="#262F3E" stroke-width="2"/>
<line x1="107.5" y1="137" x2="107.5" y2="139" stroke="#262F3E"/>
<line x1="177.5" y1="137" x2="177.5" y2="139" stroke="#262F3E"/>
<line x1="247.5" y1="137" x2="247.5" y2="139" stroke="#262F3E"/>
<line x1="317.5" y1="137" x2="317.5" y2="139" stroke="#262F3E"/>
<line x1="387.5" y1="137" x2="387.5" y2="139" stroke="#262F3E"/>
<line x1="457.5" y1="138" x2="457.5" y2="140" stroke="#262F3E"/>
<line x1="527.5" y1="137" x2="527.5" y2="139" stroke="#262F3E"/>
<line x1="597.5" y1="137" x2="597.5" y2="139" stroke="#262F3E"/>
<line x1="667.5" y1="138" x2="667.5" y2="140" stroke="#262F3E"/>
<line x1="737.5" y1="137" x2="737.5" y2="139" stroke="#262F3E"/>
<line x1="807.5" y1="137" x2="807.5" y2="139" stroke="#262F3E"/>
<line x1="877.5" y1="137" x2="877.5" y2="139" stroke="#262F3E"/>
<line x1="947.5" y1="137" x2="947.5" y2="139" stroke="#262F3E"/>
<line x1="1082.5" y1="137" x2="1082.5" y2="139" stroke="#262F3E"/>
<line x1="107.5" y1="205" x2="107.5" y2="207" stroke="#262F3E"/>
<line x1="177.5" y1="205" x2="177.5" y2="207" stroke="#262F3E"/>
<line x1="247.5" y1="205" x2="247.5" y2="207" stroke="#262F3E"/>
<line x1="317.5" y1="205" x2="317.5" y2="207" stroke="#262F3E"/>
<line x1="387.5" y1="205" x2="387.5" y2="207" stroke="#262F3E"/>
<line x1="457.5" y1="206" x2="457.5" y2="208" stroke="#262F3E"/>
<line x1="527.5" y1="205" x2="527.5" y2="207" stroke="#262F3E"/>
<line x1="597.5" y1="205" x2="597.5" y2="207" stroke="#262F3E"/>
<line x1="667.5" y1="206" x2="667.5" y2="208" stroke="#262F3E"/>
<line x1="737.5" y1="205" x2="737.5" y2="207" stroke="#262F3E"/>
<line x1="807.5" y1="205" x2="807.5" y2="207" stroke="#262F3E"/>
<line x1="877.5" y1="205" x2="877.5" y2="207" stroke="#262F3E"/>
<line x1="947.5" y1="205" x2="947.5" y2="207" stroke="#262F3E"/>
<line x1="1082.5" y1="205" x2="1082.5" y2="207" stroke="#262F3E"/>
<line x1="1082.5" y1="207" x2="1082.5" y2="210" stroke="#262F3E" stroke-width="3"/>
<line x1="284" y1="272" x2="284" y2="274" stroke="#262F3E" stroke-width="2"/>
<line x1="214" y1="272" x2="214" y2="274" stroke="#262F3E" stroke-width="2"/>
<line x1="302" y1="274" x2="302" y2="276" stroke="#262F3E" stroke-width="2"/>
<line x1="232" y1="274" x2="232" y2="276" stroke="#262F3E" stroke-width="2"/>
<line x1="354" y1="272" x2="354" y2="274" stroke="#262F3E" stroke-width="2"/>
<line x1="371" y1="274" x2="371" y2="276" stroke="#262F3E" stroke-width="2"/>
<line x1="423" y1="272" x2="423" y2="274" stroke="#262F3E" stroke-width="2"/>
<line x1="441" y1="274" x2="441" y2="276" stroke="#262F3E" stroke-width="2"/>
<line x1="492.5" y1="272" x2="492.5" y2="274" stroke="#262F3E"/>
<line x1="510.5" y1="274" x2="510.5" y2="276" stroke="#262F3E"/>
<line x1="579.5" y1="274" x2="579.5" y2="276" stroke="#262F3E"/>
<line x1="562" y1="272" x2="562" y2="274" stroke="#262F3E" stroke-width="2"/>
<line x1="649.5" y1="274" x2="649.5" y2="276" stroke="#262F3E"/>
<line x1="631.5" y1="272" x2="631.5" y2="274" stroke="#262F3E"/>
<line x1="838.5" y1="271" x2="838.5" y2="273" stroke="#262F3E"/>
<line x1="908.5" y1="272" x2="908.5" y2="274" stroke="#262F3E"/>
<line x1="977.5" y1="271" x2="977.5" y2="273" stroke="#262F3E"/>
<line x1="1082.5" y1="272" x2="1082.5" y2="274" stroke="#262F3E"/>
<line x1="1082.5" y1="273" x2="1082.5" y2="276" stroke="#262F3E" stroke-width="3"/>
<line x1="198.5" y1="343" x2="198.5" y2="346" stroke="#262F3E" stroke-width="3"/>
<line x1="232" y1="340" x2="232" y2="343" stroke="#262F3E" stroke-width="2"/>
<line x1="268" y1="342" x2="268" y2="345" stroke="#262F3E" stroke-width="2"/>
<line x1="302" y1="340" x2="302" y2="343" stroke="#262F3E" stroke-width="2"/>
<line x1="338" y1="342" x2="338" y2="345" stroke="#262F3E" stroke-width="2"/>
<line x1="371" y1="340" x2="371" y2="343" stroke="#262F3E" stroke-width="2"/>
<line x1="407" y1="343" x2="407" y2="346" stroke="#262F3E" stroke-width="2"/>
<line x1="441" y1="340" x2="441" y2="343" stroke="#262F3E" stroke-width="2"/>
<line x1="477" y1="342" x2="477" y2="345" stroke="#262F3E" stroke-width="2"/>
<line x1="510" y1="340" x2="510" y2="343" stroke="#262F3E" stroke-width="2"/>
<line x1="546" y1="343" x2="546" y2="346" stroke="#262F3E" stroke-width="2"/>
<line x1="580" y1="341" x2="580" y2="344" stroke="#262F3E" stroke-width="2"/>
<line x1="616" y1="343" x2="616" y2="346" stroke="#262F3E" stroke-width="2"/>
<line x1="649" y1="340" x2="649" y2="343" stroke="#262F3E" stroke-width="2"/>
<line x1="685" y1="342" x2="685" y2="345" stroke="#262F3E" stroke-width="2"/>
<line x1="1082.5" y1="341" x2="1082.5" y2="344" stroke="#262F3E" stroke-width="3"/>
<line x1="198.5" y1="410" x2="198.5" y2="413" stroke="#262F3E" stroke-width="3"/>
<line x1="129.5" y1="411" x2="129.5" y2="414" stroke="#262F3E" stroke-width="3"/>
<line x1="216" y1="411" x2="216" y2="414" stroke="#262F3E" stroke-width="2"/>
<line x1="268" y1="410" x2="268" y2="413" stroke="#262F3E" stroke-width="2"/>
<path d="M302 411V414" stroke="#262F3E" stroke-width="2"/>
<line x1="338" y1="410" x2="338" y2="413" stroke="#262F3E" stroke-width="2"/>
<line x1="407" y1="410" x2="407" y2="413" stroke="#262F3E" stroke-width="2"/>
<line x1="477" y1="410" x2="477" y2="413" stroke="#262F3E" stroke-width="2"/>
<line x1="546" y1="410" x2="546" y2="413" stroke="#262F3E" stroke-width="2"/>
<line x1="616" y1="410" x2="616" y2="413" stroke="#262F3E" stroke-width="2"/>
<line x1="686" y1="410" x2="686" y2="413" stroke="#262F3E" stroke-width="2"/>
<line x1="738" y1="412" x2="738" y2="415" stroke="#262F3E" stroke-width="2"/>
<line x1="823.5" y1="411" x2="823.5" y2="414" stroke="#262F3E" stroke-width="3"/>
<line x1="1082.5" y1="411" x2="1082.5" y2="414" stroke="#262F3E" stroke-width="3"/>
<line x1="1013.5" y1="411" x2="1013.5" y2="414" stroke="#262F3E" stroke-width="3"/>
</mask>
<g mask="url(#mask0_35_77)">
<g style="mix-blend-mode:color-dodge">
<rect x="21.5" y="21.5" width="1152" height="481" rx="16.5" fill="url(#paint0_linear_35_77)"/>
<rect x="21.5" y="21.5" width="1152" height="481" rx="16.5" stroke="white" stroke-width="3"/>
</g>
<g style="mix-blend-mode:color-dodge">
<rect x="22.5" y="21.5" width="1152" height="481" rx="16.5" fill="url(#paint1_linear_35_77)"/>
<rect x="22.5" y="21.5" width="1152" height="481" rx="16.5" stroke="white" stroke-width="3"/>
</g>
</g>
<defs>
<filter id="filter0_d_35_77" x="0" y="0" width="1205" height="534" filterUnits="userSpaceOnUse" color-interpolation-filters="sRGB">
<feFlood flood-opacity="0" result="BackgroundImageFix"/>
<feColorMatrix in="SourceAlpha" type="matrix" values="0 0 0 0 0 0 0 0 0 0 0 0 0 0 0 0 0 0 127 0" result="hardAlpha"/>
<feOffset dx="5" dy="5"/>
<feGaussianBlur stdDeviation="5"/>
<feComposite in2="hardAlpha" operator="out"/>
<feColorMatrix type="matrix" values="0 0 0 0 0.14153 0 0 0 0 0.168904 0 0 0 0 0.278402 0 0 0 0.01 0"/>
<feBlend mode="normal" in2="BackgroundImageFix" result="effect1_dropShadow_35_77"/>
<feBlend mode="normal" in="SourceGraphic" in2="effect1_dropShadow_35_77" result="shape"/>
</filter>
<linearGradient id="paint0_linear_35_77" x1="157" y1="11.5001" x2="1100.5" y2="517.5" gradientUnits="userSpaceOnUse">
<stop stop-color="#FF0004"/>
<stop offset="0.2" stop-color="#66FF00"/>
<stop offset="0.4" stop-color="#FF00FB"/>
<stop offset="0.6" stop-color="#E2FF09"/>
<stop offset="0.8" stop-color="#20CFFF"/>
<stop offset="1" stop-color="#C800FF"/>
</linearGradient>
<linearGradient id="paint1_linear_35_77" x1="158" y1="11.5001" x2="1101.5" y2="517.5" gradientUnits="userSpaceOnUse">
<stop stop-color="#FF0004"/>
<stop offset="0.1" stop-color="#FFBF00"/>
<stop offset="0.2" stop-color="#00EACB"/>
<stop offset="0.3" stop-color="#00FF04"/>
<stop offset="0.4" stop-color="#2B00FF"/>
<stop offset="0.5" stop-color="#FF6A00"/>
<stop offset="0.6" stop-color="#FF00FB"/>
<stop offset="0.7" stop-color="#00FF6A"/>
<stop offset="0.8" stop-color="#FFBD09"/>
<stop offset="0.9" stop-color="#20CFFF"/>
<stop offset="1" stop-color="#D336FF"/>
</linearGradient>
</defs>
</svg>
