<svg width="1185" height="514" viewBox="0 0 1185 514" fill="none" xmlns="http://www.w3.org/2000/svg">
<path d="M33 135C33 133.343 34.3431 132 36 132H1144C1145.66 132 1147 133.343 1147 135V473C1147 474.657 1145.66 476 1144 476H942C940.343 476 939 474.657 939 473V410C939 408.343 937.657 407 936 407H908.5C906.843 407 905.5 408.343 905.5 410V473C905.5 474.657 904.157 476 902.5 476H36C34.3432 476 33 474.657 33 473V135Z" stroke="#262F3E" stroke-width="2"/>
<rect x="173" y="38" width="279" height="71" rx="3" stroke="#262F3E" stroke-width="2"/>
<rect x="474" y="38" width="279" height="71" rx="3" stroke="#262F3E" stroke-width="2"/>
<rect x="593" y="132" width="69" height="71" rx="3" stroke="#262F3E" stroke-width="2"/>
<rect x="663" y="132" width="69" height="71" rx="3" stroke="#262F3E" stroke-width="2"/>
<rect x="733" y="132" width="69" height="71" rx="3" stroke="#262F3E" stroke-width="2"/>
<rect x="803" y="132" width="69" height="71" rx="3" stroke="#262F3E" stroke-width="2"/>
<rect x="873" y="132" width="69" height="71" rx="3" stroke="#262F3E" stroke-width="2"/>
<rect x="943" y="132" width="134" height="71" rx="3" stroke="#262F3E" stroke-width="2"/>
<rect x="173" y="38" width="69" height="71" rx="3" stroke="#262F3E" stroke-width="2"/>
<rect x="34" y="38" width="69" height="71" rx="3" stroke="#262F3E" stroke-width="2"/>
<rect x="243" y="38" width="69" height="71" rx="3" stroke="#262F3E" stroke-width="2"/>
<rect x="313" y="38" width="69" height="71" rx="3" stroke="#262F3E" stroke-width="2"/>
<rect x="383" y="38" width="69" height="71" rx="3" stroke="#262F3E" stroke-width="2"/>
<rect x="474" y="38" width="69" height="71" rx="3" stroke="#262F3E" stroke-width="2"/>
<rect x="544" y="38" width="69" height="71" rx="3" stroke="#262F3E" stroke-width="2"/>
<rect x="614" y="38" width="69" height="71" rx="3" stroke="#262F3E" stroke-width="2"/>
<rect x="684" y="38" width="69" height="71" rx="3" stroke="#262F3E" stroke-width="2"/>
<rect x="523" y="132" width="69" height="71" rx="3" stroke="#262F3E" stroke-width="2"/>
<rect x="453" y="132" width="69" height="71" rx="3" stroke="#262F3E" stroke-width="2"/>
<rect x="383" y="132" width="69" height="71" rx="3" stroke="#262F3E" stroke-width="2"/>
<rect x="313" y="132" width="69" height="71" rx="3" stroke="#262F3E" stroke-width="2"/>
<rect x="243" y="132" width="69" height="71" rx="3" stroke="#262F3E" stroke-width="2"/>
<rect x="173" y="132" width="69" height="71" rx="3" stroke="#262F3E" stroke-width="2"/>
<rect x="103" y="132" width="69" height="71" rx="3" stroke="#262F3E" stroke-width="2"/>
<rect x="33" y="132" width="69" height="71" rx="3" stroke="#262F3E" stroke-width="2"/>
<rect x="627.009" y="203" width="68.5788" height="65.8384" rx="3" stroke="#262F3E" stroke-width="2"/>
<rect x="557.436" y="203" width="68.5788" height="65.8384" rx="3" stroke="#262F3E" stroke-width="2"/>
<rect x="487.864" y="203" width="68.5788" height="65.8384" rx="3" stroke="#262F3E" stroke-width="2"/>
<rect x="418.291" y="203" width="68.5788" height="65.8384" rx="3" stroke="#262F3E" stroke-width="2"/>
<rect x="348.718" y="203" width="68.5788" height="65.8384" rx="3" stroke="#262F3E" stroke-width="2"/>
<rect x="279.145" y="203" width="68.5788" height="65.8384" rx="3" stroke="#262F3E" stroke-width="2"/>
<rect x="209.573" y="203" width="68.5788" height="65.8384" rx="3" stroke="#262F3E" stroke-width="2"/>
<rect x="140" y="203" width="68.5788" height="65.8384" rx="3" stroke="#262F3E" stroke-width="2"/>
<rect x="644.867" y="269" width="68.5588" height="68.8384" rx="3" stroke="#262F3E" stroke-width="2"/>
<rect x="575.315" y="269" width="68.5588" height="68.8384" rx="3" stroke="#262F3E" stroke-width="2"/>
<rect x="505.762" y="269" width="68.5588" height="68.8384" rx="3" stroke="#262F3E" stroke-width="2"/>
<rect x="436.21" y="269" width="68.5588" height="68.8384" rx="3" stroke="#262F3E" stroke-width="2"/>
<rect x="366.657" y="269" width="68.5588" height="68.8384" rx="3" stroke="#262F3E" stroke-width="2"/>
<rect x="297.105" y="269" width="68.5588" height="68.8384" rx="3" stroke="#262F3E" stroke-width="2"/>
<rect x="227.552" y="269" width="68.5588" height="68.8384" rx="3" stroke="#262F3E" stroke-width="2"/>
<rect x="158" y="269" width="68.5588" height="68.8384" rx="3" stroke="#262F3E" stroke-width="2"/>
<rect x="33" y="269" width="124.559" height="68.8384" rx="3" stroke="#262F3E" stroke-width="2"/>
<rect x="33" y="338" width="160" height="68.8384" rx="3" stroke="#262F3E" stroke-width="2"/>
<rect x="696.009" y="203" width="68.5788" height="65.8384" rx="3" stroke="#262F3E" stroke-width="2"/>
<rect x="765.009" y="203" width="68.5788" height="65.8384" rx="3" stroke="#262F3E" stroke-width="2"/>
<rect x="834.009" y="203" width="68.5788" height="65.8384" rx="3" stroke="#262F3E" stroke-width="2"/>
<rect x="903.009" y="203" width="68.5788" height="65.8384" rx="3" stroke="#262F3E" stroke-width="2"/>
<rect x="713.867" y="269" width="68.5588" height="68.8384" rx="3" stroke="#262F3E" stroke-width="2"/>
<rect x="782.867" y="269" width="68.5588" height="68.8384" rx="3" stroke="#262F3E" stroke-width="2"/>
<rect x="851.867" y="269" width="68.5588" height="68.8384" rx="3" stroke="#262F3E" stroke-width="2"/>
<rect x="921" y="269" width="156" height="69" rx="3" stroke="#262F3E" stroke-width="2"/>
<rect x="680.867" y="338" width="68.5588" height="68.8384" rx="3" stroke="#262F3E" stroke-width="2"/>
<rect x="611.315" y="338" width="68.5588" height="68.8384" rx="3" stroke="#262F3E" stroke-width="2"/>
<rect x="541.762" y="338" width="68.5588" height="68.8384" rx="3" stroke="#262F3E" stroke-width="2"/>
<rect x="472.21" y="338" width="68.5588" height="68.8384" rx="3" stroke="#262F3E" stroke-width="2"/>
<rect x="402.657" y="338" width="68.5588" height="68.8384" rx="3" stroke="#262F3E" stroke-width="2"/>
<rect x="332.657" y="338" width="68.5588" height="68.8384" rx="3" stroke="#262F3E" stroke-width="2"/>
<rect x="263.552" y="338" width="68.5588" height="68.8384" rx="3" stroke="#262F3E" stroke-width="2"/>
<rect x="818.867" y="338" width="68.5588" height="68.8384" rx="3" stroke="#262F3E" stroke-width="2"/>
<rect x="888" y="338" width="120" height="69" rx="3" stroke="#262F3E" stroke-width="2"/>
<rect x="749.867" y="338" width="68.5588" height="68.8384" rx="3" stroke="#262F3E" stroke-width="2"/>
<rect x="1008.87" y="338" width="68.5588" height="68.8384" rx="3" stroke="#262F3E" stroke-width="2"/>
<rect x="1078" y="338" width="68.5588" height="68.8384" rx="3" stroke="#262F3E" stroke-width="2"/>
<rect x="1078" y="132" width="69" height="71" rx="3" stroke="#262F3E" stroke-width="2"/>
<rect x="1078" y="269" width="68.5588" height="68.8384" rx="3" stroke="#262F3E" stroke-width="2"/>
<rect x="1078.01" y="203" width="68.5788" height="65.8384" rx="3" stroke="#262F3E" stroke-width="2"/>
<rect x="33" y="203" width="107" height="66" rx="3" stroke="#262F3E" stroke-width="2"/>
<rect x="972" y="203" width="105" height="66" rx="3" stroke="#262F3E" stroke-width="2"/>
<rect x="194" y="338" width="68.5588" height="68.8384" rx="3" stroke="#262F3E" stroke-width="2"/>
<rect x="33" y="407" width="91" height="69" rx="3" stroke="#262F3E" stroke-width="2"/>
<rect x="125" y="407" width="85" height="69" rx="3" stroke="#262F3E" stroke-width="2"/>
<rect x="211" y="407" width="85" height="69" rx="3" stroke="#262F3E" stroke-width="2"/>
<rect x="297" y="407" width="435" height="69" rx="3" stroke="#262F3E" stroke-width="2"/>
<rect x="733" y="407" width="85" height="69" rx="3" stroke="#262F3E" stroke-width="2"/>
<rect x="819" y="407" width="86" height="69" rx="3" stroke="#262F3E" stroke-width="2"/>
<rect x="1009" y="407" width="68" height="69" rx="3" stroke="#262F3E" stroke-width="2"/>
<rect x="1078" y="407" width="69" height="69" rx="3" stroke="#262F3E" stroke-width="2"/>
<rect x="939" y="407" width="69" height="69" rx="3" stroke="#262F3E" stroke-width="2"/>
<line x1="102.5" y1="132" x2="102.5" y2="134" stroke="#262F3E"/>
<line x1="172.5" y1="132" x2="172.5" y2="134" stroke="#262F3E"/>
<line x1="242.5" y1="132" x2="242.5" y2="134" stroke="#262F3E"/>
<line x1="312.5" y1="132" x2="312.5" y2="134" stroke="#262F3E"/>
<line x1="382.5" y1="132" x2="382.5" y2="134" stroke="#262F3E"/>
<line x1="452.5" y1="133" x2="452.5" y2="135" stroke="#262F3E"/>
<line x1="522.5" y1="132" x2="522.5" y2="134" stroke="#262F3E"/>
<line x1="592.5" y1="132" x2="592.5" y2="134" stroke="#262F3E"/>
<line x1="662.5" y1="133" x2="662.5" y2="135" stroke="#262F3E"/>
<line x1="732.5" y1="132" x2="732.5" y2="134" stroke="#262F3E"/>
<line x1="802.5" y1="132" x2="802.5" y2="134" stroke="#262F3E"/>
<line x1="872.5" y1="132" x2="872.5" y2="134" stroke="#262F3E"/>
<line x1="942.5" y1="132" x2="942.5" y2="134" stroke="#262F3E"/>
<line x1="1077.5" y1="132" x2="1077.5" y2="134" stroke="#262F3E"/>
<line x1="102.5" y1="200" x2="102.5" y2="202" stroke="#262F3E"/>
<line x1="172.5" y1="200" x2="172.5" y2="202" stroke="#262F3E"/>
<line x1="242.5" y1="200" x2="242.5" y2="202" stroke="#262F3E"/>
<line x1="312.5" y1="200" x2="312.5" y2="202" stroke="#262F3E"/>
<line x1="382.5" y1="200" x2="382.5" y2="202" stroke="#262F3E"/>
<line x1="452.5" y1="201" x2="452.5" y2="203" stroke="#262F3E"/>
<line x1="522.5" y1="200" x2="522.5" y2="202" stroke="#262F3E"/>
<line x1="592.5" y1="200" x2="592.5" y2="202" stroke="#262F3E"/>
<line x1="662.5" y1="201" x2="662.5" y2="203" stroke="#262F3E"/>
<line x1="732.5" y1="200" x2="732.5" y2="202" stroke="#262F3E"/>
<line x1="802.5" y1="200" x2="802.5" y2="202" stroke="#262F3E"/>
<line x1="872.5" y1="200" x2="872.5" y2="202" stroke="#262F3E"/>
<line x1="942.5" y1="200" x2="942.5" y2="202" stroke="#262F3E"/>
<line x1="1077.5" y1="200" x2="1077.5" y2="202" stroke="#262F3E"/>
<line x1="1077.5" y1="202" x2="1077.5" y2="205" stroke="#262F3E" stroke-width="3"/>
<line x1="279" y1="267" x2="279" y2="269" stroke="#262F3E" stroke-width="2"/>
<line x1="209" y1="267" x2="209" y2="269" stroke="#262F3E" stroke-width="2"/>
<line x1="297" y1="269" x2="297" y2="271" stroke="#262F3E" stroke-width="2"/>
<line x1="227" y1="269" x2="227" y2="271" stroke="#262F3E" stroke-width="2"/>
<line x1="349" y1="267" x2="349" y2="269" stroke="#262F3E" stroke-width="2"/>
<line x1="366" y1="269" x2="366" y2="271" stroke="#262F3E" stroke-width="2"/>
<line x1="418" y1="267" x2="418" y2="269" stroke="#262F3E" stroke-width="2"/>
<line x1="436" y1="269" x2="436" y2="271" stroke="#262F3E" stroke-width="2"/>
<line x1="487.5" y1="267" x2="487.5" y2="269" stroke="#262F3E"/>
<line x1="505.5" y1="269" x2="505.5" y2="271" stroke="#262F3E"/>
<line x1="574.5" y1="269" x2="574.5" y2="271" stroke="#262F3E"/>
<line x1="557" y1="267" x2="557" y2="269" stroke="#262F3E" stroke-width="2"/>
<line x1="644.5" y1="269" x2="644.5" y2="271" stroke="#262F3E"/>
<line x1="626.5" y1="267" x2="626.5" y2="269" stroke="#262F3E"/>
<line x1="833.5" y1="266" x2="833.5" y2="268" stroke="#262F3E"/>
<line x1="903.5" y1="267" x2="903.5" y2="269" stroke="#262F3E"/>
<line x1="972.5" y1="266" x2="972.5" y2="268" stroke="#262F3E"/>
<line x1="1077.5" y1="267" x2="1077.5" y2="269" stroke="#262F3E"/>
<line x1="1077.5" y1="268" x2="1077.5" y2="271" stroke="#262F3E" stroke-width="3"/>
<line x1="193.5" y1="338" x2="193.5" y2="341" stroke="#262F3E" stroke-width="3"/>
<line x1="227" y1="335" x2="227" y2="338" stroke="#262F3E" stroke-width="2"/>
<line x1="263" y1="337" x2="263" y2="340" stroke="#262F3E" stroke-width="2"/>
<line x1="297" y1="335" x2="297" y2="338" stroke="#262F3E" stroke-width="2"/>
<line x1="332" y1="337" x2="332" y2="340" stroke="#262F3E" stroke-width="2"/>
<line x1="366" y1="335" x2="366" y2="338" stroke="#262F3E" stroke-width="2"/>
<line x1="402" y1="338" x2="402" y2="341" stroke="#262F3E" stroke-width="2"/>
<line x1="436" y1="335" x2="436" y2="338" stroke="#262F3E" stroke-width="2"/>
<line x1="472" y1="337" x2="472" y2="340" stroke="#262F3E" stroke-width="2"/>
<line x1="505" y1="335" x2="505" y2="338" stroke="#262F3E" stroke-width="2"/>
<line x1="541" y1="338" x2="541" y2="341" stroke="#262F3E" stroke-width="2"/>
<line x1="575" y1="336" x2="575" y2="339" stroke="#262F3E" stroke-width="2"/>
<line x1="611" y1="338" x2="611" y2="341" stroke="#262F3E" stroke-width="2"/>
<line x1="644" y1="335" x2="644" y2="338" stroke="#262F3E" stroke-width="2"/>
<line x1="680" y1="337" x2="680" y2="340" stroke="#262F3E" stroke-width="2"/>
<line x1="1077.5" y1="336" x2="1077.5" y2="339" stroke="#262F3E" stroke-width="3"/>
<line x1="193.5" y1="405" x2="193.5" y2="408" stroke="#262F3E" stroke-width="3"/>
<line x1="124.5" y1="406" x2="124.5" y2="409" stroke="#262F3E" stroke-width="3"/>
<line x1="211" y1="406" x2="211" y2="409" stroke="#262F3E" stroke-width="2"/>
<line x1="263" y1="405" x2="263" y2="408" stroke="#262F3E" stroke-width="2"/>
<path d="M297 406V409" stroke="#262F3E" stroke-width="2"/>
<line x1="332" y1="405" x2="332" y2="408" stroke="#262F3E" stroke-width="2"/>
<line x1="402" y1="405" x2="402" y2="408" stroke="#262F3E" stroke-width="2"/>
<line x1="472" y1="405" x2="472" y2="408" stroke="#262F3E" stroke-width="2"/>
<line x1="541" y1="405" x2="541" y2="408" stroke="#262F3E" stroke-width="2"/>
<line x1="611" y1="405" x2="611" y2="408" stroke="#262F3E" stroke-width="2"/>
<line x1="681" y1="405" x2="681" y2="408" stroke="#262F3E" stroke-width="2"/>
<line x1="733" y1="407" x2="733" y2="410" stroke="#262F3E" stroke-width="2"/>
<line x1="818.5" y1="406" x2="818.5" y2="409" stroke="#262F3E" stroke-width="3"/>
<line x1="1077.5" y1="406" x2="1077.5" y2="409" stroke="#262F3E" stroke-width="3"/>
<line x1="1008.5" y1="406" x2="1008.5" y2="409" stroke="#262F3E" stroke-width="3"/>
<rect x="775" y="38" width="69" height="71" rx="3" stroke="#262F3E" stroke-width="2"/>
<rect x="845" y="38" width="69" height="71" rx="3" stroke="#262F3E" stroke-width="2"/>
<rect x="915" y="38" width="69" height="71" rx="3" stroke="#262F3E" stroke-width="2"/>
<rect x="985" y="38" width="69" height="71" rx="3" stroke="#262F3E" stroke-width="2"/>
<rect x="775" y="38" width="279" height="71" rx="3" stroke="#262F3E" stroke-width="2"/>
<rect x="1.5" y="1.5" width="1182" height="511" rx="27.5" stroke="#262F3E" stroke-opacity="0.01" stroke-width="3"/>
</svg>
