<svg width="1185" height="514" viewBox="0 0 1185 514" fill="none" xmlns="http://www.w3.org/2000/svg">
<rect x="1.5" y="1.5" width="1182" height="511" rx="27.5" fill="#DBDFE9" stroke="#262F3E" stroke-width="3"/>
<rect x="16.5" y="16.5" width="1152" height="481" rx="16.5" fill="#F2F4FA" stroke="white" stroke-width="3"/>
<path d="M33 135C33 133.343 34.3431 132 36 132H1144C1145.66 132 1147 133.343 1147 135V473C1147 474.657 1145.66 476 1144 476H942C940.343 476 939 474.657 939 473V410C939 408.343 937.657 407 936 407H908.5C906.843 407 905.5 408.343 905.5 410V473C905.5 474.657 904.157 476 902.5 476H36C34.3432 476 33 474.657 33 473V135Z" fill="url(#paint0_linear_78_291)"/>
<rect x="596" y="135" width="63.0845" height="64.9131" rx="1" stroke="#262F3E" stroke-width="2"/>
<rect x="666" y="135" width="63.0845" height="64.9131" rx="1" stroke="#262F3E" stroke-width="2"/>
<rect x="736" y="135" width="63.0845" height="64.9131" rx="1" stroke="#262F3E" stroke-width="2"/>
<rect x="806" y="135" width="63.0845" height="64.9131" rx="1" stroke="#262F3E" stroke-width="2"/>
<rect x="876" y="135" width="63.0845" height="64.9131" rx="1" stroke="#262F3E" stroke-width="2"/>
<rect x="946" y="135" width="128" height="65" rx="1" stroke="#262F3E" stroke-width="2"/>
<rect x="526" y="135" width="63.0845" height="64.9131" rx="1" stroke="#262F3E" stroke-width="2"/>
<rect x="456" y="135" width="63.0845" height="64.9131" rx="1" stroke="#262F3E" stroke-width="2"/>
<rect x="386" y="135" width="63.0845" height="64.9131" rx="1" stroke="#262F3E" stroke-width="2"/>
<rect x="316" y="135" width="63.0845" height="64.9131" rx="1" stroke="#262F3E" stroke-width="2"/>
<rect x="246" y="135" width="63.0845" height="64.9131" rx="1" stroke="#262F3E" stroke-width="2"/>
<rect x="176" y="135" width="63.0845" height="64.9131" rx="1" stroke="#262F3E" stroke-width="2"/>
<rect x="106" y="135" width="63.0845" height="64.9131" rx="1" stroke="#262F3E" stroke-width="2"/>
<rect x="36" y="135" width="63.0845" height="64.9131" rx="1" stroke="#262F3E" stroke-width="2"/>
<rect x="629.991" y="205.782" width="62.6994" height="60.194" rx="1" stroke="#262F3E" stroke-width="2"/>
<rect x="560.418" y="205.782" width="62.6994" height="60.194" rx="1" stroke="#262F3E" stroke-width="2"/>
<rect x="490.845" y="205.782" width="62.6994" height="60.194" rx="1" stroke="#262F3E" stroke-width="2"/>
<rect x="421.272" y="205.782" width="62.6994" height="60.194" rx="1" stroke="#262F3E" stroke-width="2"/>
<rect x="351.7" y="205.782" width="62.6994" height="60.194" rx="1" stroke="#262F3E" stroke-width="2"/>
<rect x="282.127" y="205.782" width="62.6994" height="60.194" rx="1" stroke="#262F3E" stroke-width="2"/>
<rect x="212.554" y="205.782" width="62.6994" height="60.194" rx="1" stroke="#262F3E" stroke-width="2"/>
<rect x="142.982" y="205.782" width="62.6994" height="60.194" rx="1" stroke="#262F3E" stroke-width="2"/>
<rect x="647.848" y="271.909" width="62.6812" height="62.9368" rx="1" stroke="#262F3E" stroke-width="2"/>
<rect x="578.296" y="271.909" width="62.6812" height="62.9368" rx="1" stroke="#262F3E" stroke-width="2"/>
<rect x="508.743" y="271.909" width="62.6812" height="62.9368" rx="1" stroke="#262F3E" stroke-width="2"/>
<rect x="439.191" y="271.909" width="62.6812" height="62.9368" rx="1" stroke="#262F3E" stroke-width="2"/>
<rect x="369.638" y="271.909" width="62.6812" height="62.9368" rx="1" stroke="#262F3E" stroke-width="2"/>
<rect x="300.086" y="271.909" width="62.6812" height="62.9368" rx="1" stroke="#262F3E" stroke-width="2"/>
<rect x="230.533" y="271.909" width="62.6812" height="62.9368" rx="1" stroke="#262F3E" stroke-width="2"/>
<rect x="160.981" y="271.909" width="62.6812" height="62.9368" rx="1" stroke="#262F3E" stroke-width="2"/>
<rect x="36" y="272" width="118" height="63" rx="1" stroke="#262F3E" stroke-width="2"/>
<rect x="36" y="341" width="154" height="63" rx="1" stroke="#262F3E" stroke-width="2"/>
<rect x="698.991" y="205.782" width="62.6994" height="60.194" rx="1" stroke="#262F3E" stroke-width="2"/>
<rect x="767.991" y="205.782" width="62.6994" height="60.194" rx="1" stroke="#262F3E" stroke-width="2"/>
<rect x="836.991" y="205.782" width="62.6994" height="60.194" rx="1" stroke="#262F3E" stroke-width="2"/>
<rect x="905.991" y="205.782" width="62.6994" height="60.194" rx="1" stroke="#262F3E" stroke-width="2"/>
<rect x="716.848" y="271.909" width="62.6812" height="62.9368" rx="1" stroke="#262F3E" stroke-width="2"/>
<rect x="785.848" y="271.909" width="62.6812" height="62.9368" rx="1" stroke="#262F3E" stroke-width="2"/>
<rect x="854.848" y="271.909" width="62.6812" height="62.9368" rx="1" stroke="#262F3E" stroke-width="2"/>
<rect x="924" y="272" width="150" height="63" rx="1" stroke="#262F3E" stroke-width="2"/>
<rect x="683.848" y="340.909" width="62.6812" height="62.9368" rx="1" stroke="#262F3E" stroke-width="2"/>
<rect x="614.296" y="340.909" width="62.6812" height="62.9368" rx="1" stroke="#262F3E" stroke-width="2"/>
<rect x="544.743" y="340.909" width="62.6812" height="62.9368" rx="1" stroke="#262F3E" stroke-width="2"/>
<rect x="475.191" y="340.909" width="62.6812" height="62.9368" rx="1" stroke="#262F3E" stroke-width="2"/>
<rect x="405.638" y="340.909" width="62.6812" height="62.9368" rx="1" stroke="#262F3E" stroke-width="2"/>
<rect x="335.638" y="340.909" width="62.6812" height="62.9368" rx="1" stroke="#262F3E" stroke-width="2"/>
<rect x="266.533" y="340.909" width="62.6812" height="62.9368" rx="1" stroke="#262F3E" stroke-width="2"/>
<rect x="821.848" y="340.909" width="62.6812" height="62.9368" rx="1" stroke="#262F3E" stroke-width="2"/>
<rect x="891" y="341" width="114" height="63" rx="1" stroke="#262F3E" stroke-width="2"/>
<rect x="752.848" y="340.909" width="62.6812" height="62.9368" rx="1" stroke="#262F3E" stroke-width="2"/>
<rect x="1011.85" y="340.909" width="62.6812" height="62.9368" rx="1" stroke="#262F3E" stroke-width="2"/>
<rect x="1080.98" y="340.909" width="62.6812" height="62.9368" rx="1" stroke="#262F3E" stroke-width="2"/>
<rect x="1081" y="135" width="63.0845" height="64.9131" rx="1" stroke="#262F3E" stroke-width="2"/>
<rect x="1080.98" y="271.909" width="62.6812" height="62.9368" rx="1" stroke="#262F3E" stroke-width="2"/>
<rect x="1080.99" y="205.782" width="62.6994" height="60.194" rx="1" stroke="#262F3E" stroke-width="2"/>
<rect x="36" y="206" width="101" height="60" rx="1" stroke="#262F3E" stroke-width="2"/>
<rect x="975" y="206" width="99" height="60" rx="1" stroke="#262F3E" stroke-width="2"/>
<rect x="196.981" y="340.909" width="62.6812" height="62.9368" rx="1" stroke="#262F3E" stroke-width="2"/>
<rect x="36" y="410" width="85" height="63" rx="1" stroke="#262F3E" stroke-width="2"/>
<rect x="128" y="410" width="79" height="63" rx="1" stroke="#262F3E" stroke-width="2"/>
<rect x="214" y="410" width="79" height="63" rx="1" stroke="#262F3E" stroke-width="2"/>
<rect x="300" y="410" width="429" height="63" rx="1" stroke="#262F3E" stroke-width="2"/>
<rect x="736" y="410" width="79" height="63" rx="1" stroke="#262F3E" stroke-width="2"/>
<rect x="822" y="410" width="80" height="63" rx="1" stroke="#262F3E" stroke-width="2"/>
<rect x="1012" y="410" width="62" height="63" rx="1" stroke="#262F3E" stroke-width="2"/>
<rect x="1081" y="410" width="63" height="63" rx="1" stroke="#262F3E" stroke-width="2"/>
<rect x="942" y="410" width="63" height="63" rx="1" stroke="#262F3E" stroke-width="2"/>
<rect x="176" y="41" width="63.0845" height="64.9131" rx="1" stroke="#262F3E" stroke-width="2"/>
<rect x="37" y="41" width="63.0845" height="64.9131" rx="1" stroke="#262F3E" stroke-width="2"/>
<rect x="246" y="41" width="63.0845" height="64.9131" rx="1" stroke="#262F3E" stroke-width="2"/>
<rect x="316" y="41" width="63.0845" height="64.9131" rx="1" stroke="#262F3E" stroke-width="2"/>
<rect x="386" y="41" width="63.0845" height="64.9131" rx="1" stroke="#262F3E" stroke-width="2"/>
<rect x="477" y="41" width="63.0845" height="64.9131" rx="1" stroke="#262F3E" stroke-width="2"/>
<rect x="547" y="41" width="63.0845" height="64.9131" rx="1" stroke="#262F3E" stroke-width="2"/>
<rect x="617" y="41" width="63.0845" height="64.9131" rx="1" stroke="#262F3E" stroke-width="2"/>
<rect x="687" y="41" width="63.0845" height="64.9131" rx="1" stroke="#262F3E" stroke-width="2"/>
<rect x="778" y="41" width="63.0845" height="64.9131" rx="1" stroke="#262F3E" stroke-width="2"/>
<rect x="848" y="41" width="63.0845" height="64.9131" rx="1" stroke="#262F3E" stroke-width="2"/>
<rect x="918" y="41" width="63.0845" height="64.9131" rx="1" stroke="#262F3E" stroke-width="2"/>
<rect x="988" y="41" width="63.0845" height="64.9131" rx="1" stroke="#262F3E" stroke-width="2"/>
<g style="mix-blend-mode:soft-light" filter="url(#filter0_df_78_291)">
<rect x="605" y="142" width="45" height="51" rx="7" fill="url(#paint1_linear_78_291)" stroke="white" stroke-width="3"/>
<rect x="675" y="142" width="45" height="51" rx="7" fill="url(#paint2_linear_78_291)" stroke="white" stroke-width="3"/>
<rect x="745" y="142" width="45" height="51" rx="7" fill="url(#paint3_linear_78_291)" stroke="white" stroke-width="3"/>
<rect x="815" y="142" width="45" height="51" rx="7" fill="url(#paint4_linear_78_291)" stroke="white" stroke-width="3"/>
<rect x="885" y="142" width="45" height="51" rx="7" fill="url(#paint5_linear_78_291)" stroke="white" stroke-width="3"/>
<rect x="955" y="142" width="110" height="51" rx="7" fill="url(#paint6_linear_78_291)" stroke="white" stroke-width="3"/>
<rect x="535" y="142" width="45" height="51" rx="7" fill="url(#paint7_linear_78_291)" stroke="white" stroke-width="3"/>
<rect x="465" y="142" width="45" height="51" rx="7" fill="url(#paint8_linear_78_291)" stroke="white" stroke-width="3"/>
<rect x="395" y="142" width="45" height="51" rx="7" fill="url(#paint9_linear_78_291)" stroke="white" stroke-width="3"/>
<rect x="325" y="142" width="45" height="51" rx="7" fill="url(#paint10_linear_78_291)" stroke="white" stroke-width="3"/>
<rect x="255" y="142" width="45" height="51" rx="7" fill="url(#paint11_linear_78_291)" stroke="white" stroke-width="3"/>
<rect x="185" y="142" width="45" height="51" rx="7" fill="url(#paint12_linear_78_291)" stroke="white" stroke-width="3"/>
<rect x="115" y="142" width="45" height="51" rx="7" fill="url(#paint13_linear_78_291)" stroke="white" stroke-width="3"/>
<rect x="45" y="142" width="45" height="51" rx="7" fill="url(#paint14_linear_78_291)" stroke="white" stroke-width="3"/>
<rect x="638.936" y="212.273" width="44.7253" height="47.2924" rx="7" fill="url(#paint15_linear_78_291)" stroke="white" stroke-width="3"/>
<rect x="569.363" y="212.273" width="44.7253" height="47.2924" rx="7" fill="url(#paint16_linear_78_291)" stroke="white" stroke-width="3"/>
<rect x="499.79" y="212.273" width="44.7253" height="47.2924" rx="7" fill="url(#paint17_linear_78_291)" stroke="white" stroke-width="3"/>
<rect x="430.218" y="212.273" width="44.7253" height="47.2924" rx="7" fill="url(#paint18_linear_78_291)" stroke="white" stroke-width="3"/>
<rect x="360.645" y="212.273" width="44.7253" height="47.2924" rx="7" fill="url(#paint19_linear_78_291)" stroke="white" stroke-width="3"/>
<rect x="291.072" y="212.273" width="44.7253" height="47.2924" rx="7" fill="url(#paint20_linear_78_291)" stroke="white" stroke-width="3"/>
<rect x="221.499" y="212.273" width="44.7253" height="47.2924" rx="7" fill="url(#paint21_linear_78_291)" stroke="white" stroke-width="3"/>
<rect x="151.927" y="212.273" width="44.7253" height="47.2924" rx="7" fill="url(#paint22_linear_78_291)" stroke="white" stroke-width="3"/>
<rect x="656.79" y="278.696" width="44.7123" height="49.4473" rx="7" fill="url(#paint23_linear_78_291)" stroke="white" stroke-width="3"/>
<rect x="587.238" y="278.696" width="44.7123" height="49.4473" rx="7" fill="url(#paint24_linear_78_291)" stroke="white" stroke-width="3"/>
<rect x="517.686" y="278.696" width="44.7123" height="49.4473" rx="7" fill="url(#paint25_linear_78_291)" stroke="white" stroke-width="3"/>
<rect x="448.133" y="278.696" width="44.7123" height="49.4473" rx="7" fill="url(#paint26_linear_78_291)" stroke="white" stroke-width="3"/>
<rect x="378.581" y="278.696" width="44.7123" height="49.4473" rx="7" fill="url(#paint27_linear_78_291)" stroke="white" stroke-width="3"/>
<rect x="309.028" y="278.696" width="44.7123" height="49.4473" rx="7" fill="url(#paint28_linear_78_291)" stroke="white" stroke-width="3"/>
<rect x="239.476" y="278.696" width="44.7123" height="49.4473" rx="7" fill="url(#paint29_linear_78_291)" stroke="white" stroke-width="3"/>
<rect x="169.923" y="278.696" width="44.7123" height="49.4473" rx="7" fill="url(#paint30_linear_78_291)" stroke="white" stroke-width="3"/>
<rect x="45" y="279" width="100" height="49" rx="7" fill="url(#paint31_linear_78_291)" stroke="white" stroke-width="3"/>
<rect x="45" y="348" width="136" height="49" rx="7" fill="url(#paint32_linear_78_291)" stroke="white" stroke-width="3"/>
<rect x="707.936" y="212.273" width="44.7253" height="47.2924" rx="7" fill="url(#paint33_linear_78_291)" stroke="white" stroke-width="3"/>
<rect x="776.936" y="212.273" width="44.7253" height="47.2924" rx="7" fill="url(#paint34_linear_78_291)" stroke="white" stroke-width="3"/>
<rect x="845.936" y="212.273" width="44.7253" height="47.2924" rx="7" fill="url(#paint35_linear_78_291)" stroke="white" stroke-width="3"/>
<rect x="914.936" y="212.273" width="44.7253" height="47.2924" rx="7" fill="url(#paint36_linear_78_291)" stroke="white" stroke-width="3"/>
<rect x="725.79" y="278.696" width="44.7123" height="49.4473" rx="7" fill="url(#paint37_linear_78_291)" stroke="white" stroke-width="3"/>
<rect x="794.79" y="278.696" width="44.7123" height="49.4473" rx="7" fill="url(#paint38_linear_78_291)" stroke="white" stroke-width="3"/>
<rect x="863.79" y="278.696" width="44.7123" height="49.4473" rx="7" fill="url(#paint39_linear_78_291)" stroke="white" stroke-width="3"/>
<rect x="934" y="279" width="131" height="49" rx="7" fill="url(#paint40_linear_78_291)" stroke="white" stroke-width="3"/>
<rect x="692.79" y="347.696" width="44.7123" height="49.4473" rx="7" fill="url(#paint41_linear_78_291)" stroke="white" stroke-width="3"/>
<rect x="623.238" y="347.696" width="44.7123" height="49.4473" rx="7" fill="url(#paint42_linear_78_291)" stroke="white" stroke-width="3"/>
<rect x="553.686" y="347.696" width="44.7123" height="49.4473" rx="7" fill="url(#paint43_linear_78_291)" stroke="white" stroke-width="3"/>
<rect x="484.133" y="347.696" width="44.7123" height="49.4473" rx="7" fill="url(#paint44_linear_78_291)" stroke="white" stroke-width="3"/>
<rect x="414.581" y="347.696" width="44.7123" height="49.4473" rx="7" fill="url(#paint45_linear_78_291)" stroke="white" stroke-width="3"/>
<rect x="344.581" y="347.696" width="44.7123" height="49.4473" rx="7" fill="url(#paint46_linear_78_291)" stroke="white" stroke-width="3"/>
<rect x="275.476" y="347.696" width="44.7123" height="49.4473" rx="7" fill="url(#paint47_linear_78_291)" stroke="white" stroke-width="3"/>
<rect x="830.79" y="347.696" width="44.7123" height="49.4473" rx="7" fill="url(#paint48_linear_78_291)" stroke="white" stroke-width="3"/>
<rect x="900" y="348" width="95" height="49" rx="7" fill="url(#paint49_linear_78_291)" stroke="white" stroke-width="3"/>
<rect x="761.79" y="347.696" width="44.7123" height="49.4473" rx="7" fill="url(#paint50_linear_78_291)" stroke="white" stroke-width="3"/>
<rect x="1020.79" y="347.696" width="44.7123" height="49.4473" rx="7" fill="url(#paint51_linear_78_291)" stroke="white" stroke-width="3"/>
<rect x="1089.92" y="347.696" width="44.7123" height="49.4473" rx="7" fill="url(#paint52_linear_78_291)" stroke="white" stroke-width="3"/>
<rect x="1090" y="142" width="45" height="51" rx="7" fill="url(#paint53_linear_78_291)" stroke="white" stroke-width="3"/>
<rect x="1089.92" y="278.696" width="44.7123" height="49.4473" rx="7" fill="url(#paint54_linear_78_291)" stroke="white" stroke-width="3"/>
<rect x="1089.94" y="212.273" width="44.7253" height="47.2924" rx="7" fill="url(#paint55_linear_78_291)" stroke="white" stroke-width="3"/>
<rect x="45" y="212" width="83" height="48" rx="7" fill="url(#paint56_linear_78_291)" stroke="white" stroke-width="3"/>
<rect x="984" y="212" width="81" height="48" rx="7" fill="url(#paint57_linear_78_291)" stroke="white" stroke-width="3"/>
<rect x="205.923" y="347.696" width="44.7123" height="49.4473" rx="7" fill="url(#paint58_linear_78_291)" stroke="white" stroke-width="3"/>
<rect x="44" y="417" width="69" height="49" rx="7" fill="url(#paint59_linear_78_291)" stroke="white" stroke-width="3"/>
<rect x="137" y="417" width="62" height="49" rx="7" fill="url(#paint60_linear_78_291)" stroke="white" stroke-width="3"/>
<rect x="223" y="417" width="61" height="49" rx="7" fill="url(#paint61_linear_78_291)" stroke="white" stroke-width="3"/>
<rect x="311" y="417" width="407" height="49" rx="7" fill="url(#paint62_linear_78_291)" stroke="white" stroke-width="3"/>
<rect x="744" y="417" width="63" height="49" rx="7" fill="url(#paint63_linear_78_291)" stroke="white" stroke-width="3"/>
<rect x="831" y="417" width="62" height="49" rx="7" fill="url(#paint64_linear_78_291)" stroke="white" stroke-width="3"/>
<rect x="1021" y="417" width="45" height="49" rx="7" fill="url(#paint65_linear_78_291)" stroke="white" stroke-width="3"/>
<rect x="1090" y="417" width="45" height="49" rx="7" fill="url(#paint66_linear_78_291)" stroke="white" stroke-width="3"/>
<rect x="951" y="417" width="45" height="49" rx="7" fill="url(#paint67_linear_78_291)" stroke="white" stroke-width="3"/>
</g>
<g style="mix-blend-mode:soft-light">
<rect x="604.5" y="141.5" width="46" height="52" rx="7.5" stroke="white"/>
<rect x="674.5" y="141.5" width="46" height="52" rx="7.5" stroke="white"/>
<rect x="744.5" y="141.5" width="46" height="52" rx="7.5" stroke="white"/>
<rect x="814.5" y="141.5" width="46" height="52" rx="7.5" stroke="white"/>
<rect x="884.5" y="141.5" width="46" height="52" rx="7.5" stroke="white"/>
<rect x="954.5" y="141.5" width="111" height="52" rx="7.5" stroke="white"/>
<rect x="534.5" y="141.5" width="46" height="52" rx="7.5" stroke="white"/>
<rect x="464.5" y="141.5" width="46" height="52" rx="7.5" stroke="white"/>
<rect x="394.5" y="141.5" width="46" height="52" rx="7.5" stroke="white"/>
<rect x="324.5" y="141.5" width="46" height="52" rx="7.5" stroke="white"/>
<rect x="254.5" y="141.5" width="46" height="52" rx="7.5" stroke="white"/>
<rect x="184.5" y="141.5" width="46" height="52" rx="7.5" stroke="white"/>
<rect x="114.5" y="141.5" width="46" height="52" rx="7.5" stroke="white"/>
<rect x="44.5" y="141.5" width="46" height="52" rx="7.5" stroke="white"/>
<rect x="638.436" y="211.773" width="45.7253" height="48.2924" rx="7.5" stroke="white"/>
<rect x="568.863" y="211.773" width="45.7253" height="48.2924" rx="7.5" stroke="white"/>
<rect x="499.29" y="211.773" width="45.7253" height="48.2924" rx="7.5" stroke="white"/>
<rect x="429.718" y="211.773" width="45.7253" height="48.2924" rx="7.5" stroke="white"/>
<rect x="360.145" y="211.773" width="45.7253" height="48.2924" rx="7.5" stroke="white"/>
<rect x="290.572" y="211.773" width="45.7253" height="48.2924" rx="7.5" stroke="white"/>
<rect x="220.999" y="211.773" width="45.7253" height="48.2924" rx="7.5" stroke="white"/>
<rect x="151.427" y="211.773" width="45.7253" height="48.2924" rx="7.5" stroke="white"/>
<rect x="656.29" y="278.196" width="45.7123" height="50.4473" rx="7.5" stroke="white"/>
<rect x="586.738" y="278.196" width="45.7123" height="50.4473" rx="7.5" stroke="white"/>
<rect x="517.186" y="278.196" width="45.7123" height="50.4473" rx="7.5" stroke="white"/>
<rect x="447.633" y="278.196" width="45.7123" height="50.4473" rx="7.5" stroke="white"/>
<rect x="378.081" y="278.196" width="45.7123" height="50.4473" rx="7.5" stroke="white"/>
<rect x="308.528" y="278.196" width="45.7123" height="50.4473" rx="7.5" stroke="white"/>
<rect x="238.976" y="278.196" width="45.7123" height="50.4473" rx="7.5" stroke="white"/>
<rect x="169.423" y="278.196" width="45.7123" height="50.4473" rx="7.5" stroke="white"/>
<rect x="44.5" y="278.5" width="101" height="50" rx="7.5" stroke="white"/>
<rect x="44.5" y="347.5" width="137" height="50" rx="7.5" stroke="white"/>
<rect x="707.436" y="211.773" width="45.7253" height="48.2924" rx="7.5" stroke="white"/>
<rect x="776.436" y="211.773" width="45.7253" height="48.2924" rx="7.5" stroke="white"/>
<rect x="845.436" y="211.773" width="45.7253" height="48.2924" rx="7.5" stroke="white"/>
<rect x="914.436" y="211.773" width="45.7253" height="48.2924" rx="7.5" stroke="white"/>
<rect x="725.29" y="278.196" width="45.7123" height="50.4473" rx="7.5" stroke="white"/>
<rect x="794.29" y="278.196" width="45.7123" height="50.4473" rx="7.5" stroke="white"/>
<rect x="863.29" y="278.196" width="45.7123" height="50.4473" rx="7.5" stroke="white"/>
<rect x="933.5" y="278.5" width="132" height="50" rx="7.5" stroke="white"/>
<rect x="692.29" y="347.196" width="45.7123" height="50.4473" rx="7.5" stroke="white"/>
<rect x="622.738" y="347.196" width="45.7123" height="50.4473" rx="7.5" stroke="white"/>
<rect x="553.186" y="347.196" width="45.7123" height="50.4473" rx="7.5" stroke="white"/>
<rect x="483.633" y="347.196" width="45.7123" height="50.4473" rx="7.5" stroke="white"/>
<rect x="414.081" y="347.196" width="45.7123" height="50.4473" rx="7.5" stroke="white"/>
<rect x="344.081" y="347.196" width="45.7123" height="50.4473" rx="7.5" stroke="white"/>
<rect x="274.976" y="347.196" width="45.7123" height="50.4473" rx="7.5" stroke="white"/>
<rect x="830.29" y="347.196" width="45.7123" height="50.4473" rx="7.5" stroke="white"/>
<rect x="899.5" y="347.5" width="96" height="50" rx="7.5" stroke="white"/>
<rect x="761.29" y="347.196" width="45.7123" height="50.4473" rx="7.5" stroke="white"/>
<rect x="1020.29" y="347.196" width="45.7123" height="50.4473" rx="7.5" stroke="white"/>
<rect x="1089.42" y="347.196" width="45.7123" height="50.4473" rx="7.5" stroke="white"/>
<rect x="1089.5" y="141.5" width="46" height="52" rx="7.5" stroke="white"/>
<rect x="1089.42" y="278.196" width="45.7123" height="50.4473" rx="7.5" stroke="white"/>
<rect x="1089.44" y="211.773" width="45.7253" height="48.2924" rx="7.5" stroke="white"/>
<rect x="44.5" y="211.5" width="84" height="49" rx="7.5" stroke="white"/>
<rect x="983.5" y="211.5" width="82" height="49" rx="7.5" stroke="white"/>
<rect x="205.423" y="347.196" width="45.7123" height="50.4473" rx="7.5" stroke="white"/>
<rect x="43.5" y="416.5" width="70" height="50" rx="7.5" stroke="white"/>
<rect x="136.5" y="416.5" width="63" height="50" rx="7.5" stroke="white"/>
<rect x="222.5" y="416.5" width="62" height="50" rx="7.5" stroke="white"/>
<rect x="310.5" y="416.5" width="408" height="50" rx="7.5" stroke="white"/>
<rect x="743.5" y="416.5" width="64" height="50" rx="7.5" stroke="white"/>
<rect x="830.5" y="416.5" width="63" height="50" rx="7.5" stroke="white"/>
<rect x="1020.5" y="416.5" width="46" height="50" rx="7.5" stroke="white"/>
<rect x="1089.5" y="416.5" width="46" height="50" rx="7.5" stroke="white"/>
<rect x="950.5" y="416.5" width="46" height="50" rx="7.5" stroke="white"/>
</g>
<g filter="url(#filter1_d_78_291)">
<rect x="1073" y="33" width="80" height="80" rx="40" fill="#999BAF"/>
<rect x="1073" y="33" width="80" height="80" rx="40" stroke="#262F3E" stroke-width="2"/>
</g>
<rect x="1076" y="36" width="74" height="74" rx="37" fill="url(#paint68_linear_78_291)" stroke="#262F3E" stroke-width="2"/>
<rect x="1085" y="45" width="57" height="57" rx="28.5" fill="#F2F4FA" stroke="#7B8494" stroke-width="3"/>
<g filter="url(#filter2_d_78_291)">
<rect x="185" y="48" width="45" height="51" rx="7" fill="#F2F4FA"/>
<rect x="46" y="48" width="45" height="51" rx="7" fill="#F2F4FA"/>
<rect x="255" y="48" width="45" height="51" rx="7" fill="#F2F4FA"/>
<rect x="325" y="48" width="45" height="51" rx="7" fill="#F2F4FA"/>
<rect x="395" y="48" width="45" height="51" rx="7" fill="#F2F4FA"/>
<rect x="486" y="48" width="45" height="51" rx="7" fill="#F2F4FA"/>
<rect x="556" y="48" width="45" height="51" rx="7" fill="#F2F4FA"/>
<rect x="626" y="48" width="45" height="51" rx="7" fill="#F2F4FA"/>
<rect x="696" y="48" width="45" height="51" rx="7" fill="#F2F4FA"/>
<rect x="787" y="48" width="45" height="51" rx="7" fill="#F2F4FA"/>
<rect x="857" y="48" width="45" height="51" rx="7" fill="#F2F4FA"/>
<rect x="927" y="48" width="45" height="51" rx="7" fill="#F2F4FA"/>
<rect x="997" y="48" width="45" height="51" rx="7" fill="#F2F4FA"/>
</g>
<defs>
<filter id="filter0_df_78_291" x="36.5" y="136.5" width="1114" height="347" filterUnits="userSpaceOnUse" color-interpolation-filters="sRGB">
<feFlood flood-opacity="0" result="BackgroundImageFix"/>
<feColorMatrix in="SourceAlpha" type="matrix" values="0 0 0 0 0 0 0 0 0 0 0 0 0 0 0 0 0 0 127 0" result="hardAlpha"/>
<feOffset dx="4" dy="6"/>
<feGaussianBlur stdDeviation="5"/>
<feComposite in2="hardAlpha" operator="out"/>
<feColorMatrix type="matrix" values="0 0 0 0 0.0536573 0 0 0 0 0.403952 0 0 0 0 0.510563 0 0 0 1 0"/>
<feBlend mode="normal" in2="BackgroundImageFix" result="effect1_dropShadow_78_291"/>
<feBlend mode="normal" in="SourceGraphic" in2="effect1_dropShadow_78_291" result="shape"/>
<feGaussianBlur stdDeviation="1" result="effect2_foregroundBlur_78_291"/>
</filter>
<filter id="filter1_d_78_291" x="1069" y="29" width="94" height="94" filterUnits="userSpaceOnUse" color-interpolation-filters="sRGB">
<feFlood flood-opacity="0" result="BackgroundImageFix"/>
<feColorMatrix in="SourceAlpha" type="matrix" values="0 0 0 0 0 0 0 0 0 0 0 0 0 0 0 0 0 0 127 0" result="hardAlpha"/>
<feOffset dx="3" dy="3"/>
<feGaussianBlur stdDeviation="3"/>
<feComposite in2="hardAlpha" operator="out"/>
<feColorMatrix type="matrix" values="0 0 0 0 0.169404 0 0 0 0 0.164969 0 0 0 0 0.218197 0 0 0 0.25 0"/>
<feBlend mode="normal" in2="BackgroundImageFix" result="effect1_dropShadow_78_291"/>
<feBlend mode="normal" in="SourceGraphic" in2="effect1_dropShadow_78_291" result="shape"/>
</filter>
<filter id="filter2_d_78_291" x="40" y="42" width="1016" height="71" filterUnits="userSpaceOnUse" color-interpolation-filters="sRGB">
<feFlood flood-opacity="0" result="BackgroundImageFix"/>
<feColorMatrix in="SourceAlpha" type="matrix" values="0 0 0 0 0 0 0 0 0 0 0 0 0 0 0 0 0 0 127 0" result="hardAlpha"/>
<feOffset dx="4" dy="4"/>
<feGaussianBlur stdDeviation="5"/>
<feComposite in2="hardAlpha" operator="out"/>
<feColorMatrix type="matrix" values="0 0 0 0 0.137255 0 0 0 0 0.352941 0 0 0 0 0.545098 0 0 0 0.25 0"/>
<feBlend mode="normal" in2="BackgroundImageFix" result="effect1_dropShadow_78_291"/>
<feBlend mode="normal" in="SourceGraphic" in2="effect1_dropShadow_78_291" result="shape"/>
</filter>
<linearGradient id="paint0_linear_78_291" x1="542" y1="132" x2="542" y2="476" gradientUnits="userSpaceOnUse">
<stop stop-color="#CAEBF8"/>
<stop offset="1" stop-color="#4391DA"/>
</linearGradient>
<linearGradient id="paint1_linear_78_291" x1="627.005" y1="194.181" x2="627.005" y2="139.167" gradientUnits="userSpaceOnUse">
<stop stop-color="#CAE1FB"/>
<stop offset="1" stop-color="#4F98ED"/>
</linearGradient>
<linearGradient id="paint2_linear_78_291" x1="697.005" y1="194.181" x2="697.005" y2="139.167" gradientUnits="userSpaceOnUse">
<stop stop-color="#CAE1FB"/>
<stop offset="1" stop-color="#4F98ED"/>
</linearGradient>
<linearGradient id="paint3_linear_78_291" x1="767.005" y1="194.181" x2="767.005" y2="139.167" gradientUnits="userSpaceOnUse">
<stop stop-color="#CAE1FB"/>
<stop offset="1" stop-color="#4F98ED"/>
</linearGradient>
<linearGradient id="paint4_linear_78_291" x1="837.005" y1="194.181" x2="837.005" y2="139.167" gradientUnits="userSpaceOnUse">
<stop stop-color="#CAE1FB"/>
<stop offset="1" stop-color="#4F98ED"/>
</linearGradient>
<linearGradient id="paint5_linear_78_291" x1="907.005" y1="194.181" x2="907.005" y2="139.167" gradientUnits="userSpaceOnUse">
<stop stop-color="#CAE1FB"/>
<stop offset="1" stop-color="#4F98ED"/>
</linearGradient>
<linearGradient id="paint6_linear_78_291" x1="1008.79" y1="194.181" x2="1008.79" y2="139.167" gradientUnits="userSpaceOnUse">
<stop stop-color="#CAE1FB"/>
<stop offset="1" stop-color="#4F98ED"/>
</linearGradient>
<linearGradient id="paint7_linear_78_291" x1="557.005" y1="194.181" x2="557.005" y2="139.167" gradientUnits="userSpaceOnUse">
<stop stop-color="#CAE1FB"/>
<stop offset="1" stop-color="#4F98ED"/>
</linearGradient>
<linearGradient id="paint8_linear_78_291" x1="487.005" y1="194.181" x2="487.005" y2="139.167" gradientUnits="userSpaceOnUse">
<stop stop-color="#CAE1FB"/>
<stop offset="1" stop-color="#4F98ED"/>
</linearGradient>
<linearGradient id="paint9_linear_78_291" x1="417.005" y1="194.181" x2="417.005" y2="139.167" gradientUnits="userSpaceOnUse">
<stop stop-color="#CAE1FB"/>
<stop offset="1" stop-color="#4F98ED"/>
</linearGradient>
<linearGradient id="paint10_linear_78_291" x1="347.005" y1="194.181" x2="347.005" y2="139.167" gradientUnits="userSpaceOnUse">
<stop stop-color="#CAE1FB"/>
<stop offset="1" stop-color="#4F98ED"/>
</linearGradient>
<linearGradient id="paint11_linear_78_291" x1="277.005" y1="194.181" x2="277.005" y2="139.167" gradientUnits="userSpaceOnUse">
<stop stop-color="#CAE1FB"/>
<stop offset="1" stop-color="#4F98ED"/>
</linearGradient>
<linearGradient id="paint12_linear_78_291" x1="207.005" y1="194.181" x2="207.005" y2="139.167" gradientUnits="userSpaceOnUse">
<stop stop-color="#CAE1FB"/>
<stop offset="1" stop-color="#4F98ED"/>
</linearGradient>
<linearGradient id="paint13_linear_78_291" x1="137.005" y1="194.181" x2="137.005" y2="139.167" gradientUnits="userSpaceOnUse">
<stop stop-color="#CAE1FB"/>
<stop offset="1" stop-color="#4F98ED"/>
</linearGradient>
<linearGradient id="paint14_linear_78_291" x1="67.005" y1="194.181" x2="67.005" y2="139.167" gradientUnits="userSpaceOnUse">
<stop stop-color="#CAE1FB"/>
<stop offset="1" stop-color="#4F98ED"/>
</linearGradient>
<linearGradient id="paint15_linear_78_291" x1="660.806" y1="260.66" x2="660.806" y2="209.646" gradientUnits="userSpaceOnUse">
<stop stop-color="#CAE1FB"/>
<stop offset="1" stop-color="#4F98ED"/>
</linearGradient>
<linearGradient id="paint16_linear_78_291" x1="591.234" y1="260.66" x2="591.234" y2="209.646" gradientUnits="userSpaceOnUse">
<stop stop-color="#CAE1FB"/>
<stop offset="1" stop-color="#4F98ED"/>
</linearGradient>
<linearGradient id="paint17_linear_78_291" x1="521.661" y1="260.66" x2="521.661" y2="209.646" gradientUnits="userSpaceOnUse">
<stop stop-color="#CAE1FB"/>
<stop offset="1" stop-color="#4F98ED"/>
</linearGradient>
<linearGradient id="paint18_linear_78_291" x1="452.088" y1="260.66" x2="452.088" y2="209.646" gradientUnits="userSpaceOnUse">
<stop stop-color="#CAE1FB"/>
<stop offset="1" stop-color="#4F98ED"/>
</linearGradient>
<linearGradient id="paint19_linear_78_291" x1="382.516" y1="260.66" x2="382.516" y2="209.646" gradientUnits="userSpaceOnUse">
<stop stop-color="#CAE1FB"/>
<stop offset="1" stop-color="#4F98ED"/>
</linearGradient>
<linearGradient id="paint20_linear_78_291" x1="312.943" y1="260.66" x2="312.943" y2="209.646" gradientUnits="userSpaceOnUse">
<stop stop-color="#CAE1FB"/>
<stop offset="1" stop-color="#4F98ED"/>
</linearGradient>
<linearGradient id="paint21_linear_78_291" x1="243.37" y1="260.66" x2="243.37" y2="209.646" gradientUnits="userSpaceOnUse">
<stop stop-color="#CAE1FB"/>
<stop offset="1" stop-color="#4F98ED"/>
</linearGradient>
<linearGradient id="paint22_linear_78_291" x1="173.797" y1="260.66" x2="173.797" y2="209.646" gradientUnits="userSpaceOnUse">
<stop stop-color="#CAE1FB"/>
<stop offset="1" stop-color="#4F98ED"/>
</linearGradient>
<linearGradient id="paint23_linear_78_291" x1="678.655" y1="329.288" x2="678.655" y2="275.948" gradientUnits="userSpaceOnUse">
<stop stop-color="#CAE1FB"/>
<stop offset="1" stop-color="#4F98ED"/>
</linearGradient>
<linearGradient id="paint24_linear_78_291" x1="609.102" y1="329.288" x2="609.102" y2="275.948" gradientUnits="userSpaceOnUse">
<stop stop-color="#CAE1FB"/>
<stop offset="1" stop-color="#4F98ED"/>
</linearGradient>
<linearGradient id="paint25_linear_78_291" x1="539.55" y1="329.288" x2="539.55" y2="275.948" gradientUnits="userSpaceOnUse">
<stop stop-color="#CAE1FB"/>
<stop offset="1" stop-color="#4F98ED"/>
</linearGradient>
<linearGradient id="paint26_linear_78_291" x1="469.997" y1="329.288" x2="469.997" y2="275.948" gradientUnits="userSpaceOnUse">
<stop stop-color="#CAE1FB"/>
<stop offset="1" stop-color="#4F98ED"/>
</linearGradient>
<linearGradient id="paint27_linear_78_291" x1="400.445" y1="329.288" x2="400.445" y2="275.948" gradientUnits="userSpaceOnUse">
<stop stop-color="#CAE1FB"/>
<stop offset="1" stop-color="#4F98ED"/>
</linearGradient>
<linearGradient id="paint28_linear_78_291" x1="330.893" y1="329.288" x2="330.893" y2="275.948" gradientUnits="userSpaceOnUse">
<stop stop-color="#CAE1FB"/>
<stop offset="1" stop-color="#4F98ED"/>
</linearGradient>
<linearGradient id="paint29_linear_78_291" x1="261.34" y1="329.288" x2="261.34" y2="275.948" gradientUnits="userSpaceOnUse">
<stop stop-color="#CAE1FB"/>
<stop offset="1" stop-color="#4F98ED"/>
</linearGradient>
<linearGradient id="paint30_linear_78_291" x1="191.788" y1="329.288" x2="191.788" y2="275.948" gradientUnits="userSpaceOnUse">
<stop stop-color="#CAE1FB"/>
<stop offset="1" stop-color="#4F98ED"/>
</linearGradient>
<linearGradient id="paint31_linear_78_291" x1="93.9001" y1="329.134" x2="93.9001" y2="276.278" gradientUnits="userSpaceOnUse">
<stop stop-color="#CAE1FB"/>
<stop offset="1" stop-color="#4F98ED"/>
</linearGradient>
<linearGradient id="paint32_linear_78_291" x1="111.504" y1="398.134" x2="111.504" y2="345.278" gradientUnits="userSpaceOnUse">
<stop stop-color="#CAE1FB"/>
<stop offset="1" stop-color="#4F98ED"/>
</linearGradient>
<linearGradient id="paint33_linear_78_291" x1="729.806" y1="260.66" x2="729.806" y2="209.646" gradientUnits="userSpaceOnUse">
<stop stop-color="#CAE1FB"/>
<stop offset="1" stop-color="#4F98ED"/>
</linearGradient>
<linearGradient id="paint34_linear_78_291" x1="798.806" y1="260.66" x2="798.806" y2="209.646" gradientUnits="userSpaceOnUse">
<stop stop-color="#CAE1FB"/>
<stop offset="1" stop-color="#4F98ED"/>
</linearGradient>
<linearGradient id="paint35_linear_78_291" x1="867.806" y1="260.66" x2="867.806" y2="209.646" gradientUnits="userSpaceOnUse">
<stop stop-color="#CAE1FB"/>
<stop offset="1" stop-color="#4F98ED"/>
</linearGradient>
<linearGradient id="paint36_linear_78_291" x1="936.806" y1="260.66" x2="936.806" y2="209.646" gradientUnits="userSpaceOnUse">
<stop stop-color="#CAE1FB"/>
<stop offset="1" stop-color="#4F98ED"/>
</linearGradient>
<linearGradient id="paint37_linear_78_291" x1="747.655" y1="329.288" x2="747.655" y2="275.948" gradientUnits="userSpaceOnUse">
<stop stop-color="#CAE1FB"/>
<stop offset="1" stop-color="#4F98ED"/>
</linearGradient>
<linearGradient id="paint38_linear_78_291" x1="816.655" y1="329.288" x2="816.655" y2="275.948" gradientUnits="userSpaceOnUse">
<stop stop-color="#CAE1FB"/>
<stop offset="1" stop-color="#4F98ED"/>
</linearGradient>
<linearGradient id="paint39_linear_78_291" x1="885.655" y1="329.288" x2="885.655" y2="275.948" gradientUnits="userSpaceOnUse">
<stop stop-color="#CAE1FB"/>
<stop offset="1" stop-color="#4F98ED"/>
</linearGradient>
<linearGradient id="paint40_linear_78_291" x1="998.059" y1="329.134" x2="998.059" y2="276.278" gradientUnits="userSpaceOnUse">
<stop stop-color="#CAE1FB"/>
<stop offset="1" stop-color="#4F98ED"/>
</linearGradient>
<linearGradient id="paint41_linear_78_291" x1="714.655" y1="398.288" x2="714.655" y2="344.948" gradientUnits="userSpaceOnUse">
<stop stop-color="#CAE1FB"/>
<stop offset="1" stop-color="#4F98ED"/>
</linearGradient>
<linearGradient id="paint42_linear_78_291" x1="645.102" y1="398.288" x2="645.102" y2="344.948" gradientUnits="userSpaceOnUse">
<stop stop-color="#CAE1FB"/>
<stop offset="1" stop-color="#4F98ED"/>
</linearGradient>
<linearGradient id="paint43_linear_78_291" x1="575.55" y1="398.288" x2="575.55" y2="344.948" gradientUnits="userSpaceOnUse">
<stop stop-color="#CAE1FB"/>
<stop offset="1" stop-color="#4F98ED"/>
</linearGradient>
<linearGradient id="paint44_linear_78_291" x1="505.997" y1="398.288" x2="505.997" y2="344.948" gradientUnits="userSpaceOnUse">
<stop stop-color="#CAE1FB"/>
<stop offset="1" stop-color="#4F98ED"/>
</linearGradient>
<linearGradient id="paint45_linear_78_291" x1="436.445" y1="398.288" x2="436.445" y2="344.948" gradientUnits="userSpaceOnUse">
<stop stop-color="#CAE1FB"/>
<stop offset="1" stop-color="#4F98ED"/>
</linearGradient>
<linearGradient id="paint46_linear_78_291" x1="366.445" y1="398.288" x2="366.445" y2="344.948" gradientUnits="userSpaceOnUse">
<stop stop-color="#CAE1FB"/>
<stop offset="1" stop-color="#4F98ED"/>
</linearGradient>
<linearGradient id="paint47_linear_78_291" x1="297.34" y1="398.288" x2="297.34" y2="344.948" gradientUnits="userSpaceOnUse">
<stop stop-color="#CAE1FB"/>
<stop offset="1" stop-color="#4F98ED"/>
</linearGradient>
<linearGradient id="paint48_linear_78_291" x1="852.655" y1="398.288" x2="852.655" y2="344.948" gradientUnits="userSpaceOnUse">
<stop stop-color="#CAE1FB"/>
<stop offset="1" stop-color="#4F98ED"/>
</linearGradient>
<linearGradient id="paint49_linear_78_291" x1="946.455" y1="398.134" x2="946.455" y2="345.278" gradientUnits="userSpaceOnUse">
<stop stop-color="#CAE1FB"/>
<stop offset="1" stop-color="#4F98ED"/>
</linearGradient>
<linearGradient id="paint50_linear_78_291" x1="783.655" y1="398.288" x2="783.655" y2="344.948" gradientUnits="userSpaceOnUse">
<stop stop-color="#CAE1FB"/>
<stop offset="1" stop-color="#4F98ED"/>
</linearGradient>
<linearGradient id="paint51_linear_78_291" x1="1042.65" y1="398.288" x2="1042.65" y2="344.948" gradientUnits="userSpaceOnUse">
<stop stop-color="#CAE1FB"/>
<stop offset="1" stop-color="#4F98ED"/>
</linearGradient>
<linearGradient id="paint52_linear_78_291" x1="1111.79" y1="398.288" x2="1111.79" y2="344.948" gradientUnits="userSpaceOnUse">
<stop stop-color="#CAE1FB"/>
<stop offset="1" stop-color="#4F98ED"/>
</linearGradient>
<linearGradient id="paint53_linear_78_291" x1="1112.01" y1="194.181" x2="1112.01" y2="139.167" gradientUnits="userSpaceOnUse">
<stop stop-color="#CAE1FB"/>
<stop offset="1" stop-color="#4F98ED"/>
</linearGradient>
<linearGradient id="paint54_linear_78_291" x1="1111.79" y1="329.288" x2="1111.79" y2="275.948" gradientUnits="userSpaceOnUse">
<stop stop-color="#CAE1FB"/>
<stop offset="1" stop-color="#4F98ED"/>
</linearGradient>
<linearGradient id="paint55_linear_78_291" x1="1111.81" y1="260.66" x2="1111.81" y2="209.646" gradientUnits="userSpaceOnUse">
<stop stop-color="#CAE1FB"/>
<stop offset="1" stop-color="#4F98ED"/>
</linearGradient>
<linearGradient id="paint56_linear_78_291" x1="85.5871" y1="261.111" x2="85.5871" y2="209.333" gradientUnits="userSpaceOnUse">
<stop stop-color="#CAE1FB"/>
<stop offset="1" stop-color="#4F98ED"/>
</linearGradient>
<linearGradient id="paint57_linear_78_291" x1="1023.61" y1="261.111" x2="1023.61" y2="209.333" gradientUnits="userSpaceOnUse">
<stop stop-color="#CAE1FB"/>
<stop offset="1" stop-color="#4F98ED"/>
</linearGradient>
<linearGradient id="paint58_linear_78_291" x1="227.788" y1="398.288" x2="227.788" y2="344.948" gradientUnits="userSpaceOnUse">
<stop stop-color="#CAE1FB"/>
<stop offset="1" stop-color="#4F98ED"/>
</linearGradient>
<linearGradient id="paint59_linear_78_291" x1="77.7411" y1="467.134" x2="77.7411" y2="414.278" gradientUnits="userSpaceOnUse">
<stop stop-color="#CAE1FB"/>
<stop offset="1" stop-color="#4F98ED"/>
</linearGradient>
<linearGradient id="paint60_linear_78_291" x1="167.318" y1="467.134" x2="167.318" y2="414.278" gradientUnits="userSpaceOnUse">
<stop stop-color="#CAE1FB"/>
<stop offset="1" stop-color="#4F98ED"/>
</linearGradient>
<linearGradient id="paint61_linear_78_291" x1="252.829" y1="467.134" x2="252.829" y2="414.278" gradientUnits="userSpaceOnUse">
<stop stop-color="#CAE1FB"/>
<stop offset="1" stop-color="#4F98ED"/>
</linearGradient>
<linearGradient id="paint62_linear_78_291" x1="510.023" y1="467.134" x2="510.023" y2="414.278" gradientUnits="userSpaceOnUse">
<stop stop-color="#CAE1FB"/>
<stop offset="1" stop-color="#4F98ED"/>
</linearGradient>
<linearGradient id="paint63_linear_78_291" x1="774.807" y1="467.134" x2="774.807" y2="414.278" gradientUnits="userSpaceOnUse">
<stop stop-color="#CAE1FB"/>
<stop offset="1" stop-color="#4F98ED"/>
</linearGradient>
<linearGradient id="paint64_linear_78_291" x1="861.318" y1="467.134" x2="861.318" y2="414.278" gradientUnits="userSpaceOnUse">
<stop stop-color="#CAE1FB"/>
<stop offset="1" stop-color="#4F98ED"/>
</linearGradient>
<linearGradient id="paint65_linear_78_291" x1="1043.01" y1="467.134" x2="1043.01" y2="414.278" gradientUnits="userSpaceOnUse">
<stop stop-color="#CAE1FB"/>
<stop offset="1" stop-color="#4F98ED"/>
</linearGradient>
<linearGradient id="paint66_linear_78_291" x1="1112.01" y1="467.134" x2="1112.01" y2="414.278" gradientUnits="userSpaceOnUse">
<stop stop-color="#CAE1FB"/>
<stop offset="1" stop-color="#4F98ED"/>
</linearGradient>
<linearGradient id="paint67_linear_78_291" x1="973.005" y1="467.134" x2="973.005" y2="414.278" gradientUnits="userSpaceOnUse">
<stop stop-color="#CAE1FB"/>
<stop offset="1" stop-color="#4F98ED"/>
</linearGradient>
<linearGradient id="paint68_linear_78_291" x1="1083.5" y1="36" x2="1142" y2="115.5" gradientUnits="userSpaceOnUse">
<stop stop-color="#38394B"/>
<stop offset="1" stop-color="#F1F2FF"/>
</linearGradient>
</defs>
</svg>
