<svg width="1205" height="534" viewBox="0 0 1205 534" fill="none" xmlns="http://www.w3.org/2000/svg">
<g filter="url(#filter0_d_29_71)">
<rect x="5" y="5" width="1185" height="514" rx="29" fill="#DBDFE9"/>
<rect x="6.5" y="6.5" width="1182" height="511" rx="27.5" stroke="#262F3E" stroke-width="3"/>
</g>
<rect x="21.5" y="21.5" width="1152" height="481" rx="16.5" fill="#F2F4FA" stroke="white" stroke-width="3"/>
<path d="M38 140C38 138.343 39.3431 137 41 137H1149C1150.66 137 1152 138.343 1152 140V478C1152 479.657 1150.66 481 1149 481H947C945.343 481 944 479.657 944 478V415C944 413.343 942.657 412 941 412H913.5C911.843 412 910.5 413.343 910.5 415V478C910.5 479.657 909.157 481 907.5 481H41C39.3432 481 38 479.657 38 478V140Z" fill="url(#paint0_linear_29_71)"/>
<rect x="601" y="140" width="63.0845" height="64.9131" rx="1" stroke="#262F3E" stroke-width="2"/>
<rect x="671" y="140" width="63.0845" height="64.9131" rx="1" stroke="#262F3E" stroke-width="2"/>
<rect x="741" y="140" width="63.0845" height="64.9131" rx="1" stroke="#262F3E" stroke-width="2"/>
<rect x="811" y="140" width="63.0845" height="64.9131" rx="1" stroke="#262F3E" stroke-width="2"/>
<rect x="881" y="140" width="63.0845" height="64.9131" rx="1" stroke="#262F3E" stroke-width="2"/>
<rect x="951" y="140" width="128" height="65" rx="1" stroke="#262F3E" stroke-width="2"/>
<rect x="531" y="140" width="63.0845" height="64.9131" rx="1" stroke="#262F3E" stroke-width="2"/>
<rect x="461" y="140" width="63.0845" height="64.9131" rx="1" stroke="#262F3E" stroke-width="2"/>
<rect x="391" y="140" width="63.0845" height="64.9131" rx="1" stroke="#262F3E" stroke-width="2"/>
<rect x="321" y="140" width="63.0845" height="64.9131" rx="1" stroke="#262F3E" stroke-width="2"/>
<rect x="251" y="140" width="63.0845" height="64.9131" rx="1" stroke="#262F3E" stroke-width="2"/>
<rect x="181" y="140" width="63.0845" height="64.9131" rx="1" stroke="#262F3E" stroke-width="2"/>
<rect x="111" y="140" width="63.0845" height="64.9131" rx="1" stroke="#262F3E" stroke-width="2"/>
<rect x="41" y="140" width="63.0845" height="64.9131" rx="1" stroke="#262F3E" stroke-width="2"/>
<rect x="634.991" y="210.782" width="62.6994" height="60.194" rx="1" stroke="#262F3E" stroke-width="2"/>
<rect x="565.418" y="210.782" width="62.6994" height="60.194" rx="1" stroke="#262F3E" stroke-width="2"/>
<rect x="495.845" y="210.782" width="62.6994" height="60.194" rx="1" stroke="#262F3E" stroke-width="2"/>
<rect x="426.272" y="210.782" width="62.6994" height="60.194" rx="1" stroke="#262F3E" stroke-width="2"/>
<rect x="356.7" y="210.782" width="62.6994" height="60.194" rx="1" stroke="#262F3E" stroke-width="2"/>
<rect x="287.127" y="210.782" width="62.6994" height="60.194" rx="1" stroke="#262F3E" stroke-width="2"/>
<rect x="217.554" y="210.782" width="62.6994" height="60.194" rx="1" stroke="#262F3E" stroke-width="2"/>
<rect x="147.982" y="210.782" width="62.6994" height="60.194" rx="1" stroke="#262F3E" stroke-width="2"/>
<rect x="652.848" y="276.909" width="62.6812" height="62.9368" rx="1" stroke="#262F3E" stroke-width="2"/>
<rect x="583.296" y="276.909" width="62.6812" height="62.9368" rx="1" stroke="#262F3E" stroke-width="2"/>
<rect x="513.743" y="276.909" width="62.6812" height="62.9368" rx="1" stroke="#262F3E" stroke-width="2"/>
<rect x="444.191" y="276.909" width="62.6812" height="62.9368" rx="1" stroke="#262F3E" stroke-width="2"/>
<rect x="374.638" y="276.909" width="62.6812" height="62.9368" rx="1" stroke="#262F3E" stroke-width="2"/>
<rect x="305.086" y="276.909" width="62.6812" height="62.9368" rx="1" stroke="#262F3E" stroke-width="2"/>
<rect x="235.533" y="276.909" width="62.6812" height="62.9368" rx="1" stroke="#262F3E" stroke-width="2"/>
<rect x="165.981" y="276.909" width="62.6812" height="62.9368" rx="1" stroke="#262F3E" stroke-width="2"/>
<rect x="41" y="277" width="118" height="63" rx="1" stroke="#262F3E" stroke-width="2"/>
<rect x="41" y="346" width="154" height="63" rx="1" stroke="#262F3E" stroke-width="2"/>
<rect x="703.991" y="210.782" width="62.6994" height="60.194" rx="1" stroke="#262F3E" stroke-width="2"/>
<rect x="772.991" y="210.782" width="62.6994" height="60.194" rx="1" stroke="#262F3E" stroke-width="2"/>
<rect x="841.991" y="210.782" width="62.6994" height="60.194" rx="1" stroke="#262F3E" stroke-width="2"/>
<rect x="910.991" y="210.782" width="62.6994" height="60.194" rx="1" stroke="#262F3E" stroke-width="2"/>
<rect x="721.848" y="276.909" width="62.6812" height="62.9368" rx="1" stroke="#262F3E" stroke-width="2"/>
<rect x="790.848" y="276.909" width="62.6812" height="62.9368" rx="1" stroke="#262F3E" stroke-width="2"/>
<rect x="859.848" y="276.909" width="62.6812" height="62.9368" rx="1" stroke="#262F3E" stroke-width="2"/>
<rect x="929" y="277" width="150" height="63" rx="1" stroke="#262F3E" stroke-width="2"/>
<rect x="688.848" y="345.909" width="62.6812" height="62.9368" rx="1" stroke="#262F3E" stroke-width="2"/>
<rect x="619.296" y="345.909" width="62.6812" height="62.9368" rx="1" stroke="#262F3E" stroke-width="2"/>
<rect x="549.743" y="345.909" width="62.6812" height="62.9368" rx="1" stroke="#262F3E" stroke-width="2"/>
<rect x="480.191" y="345.909" width="62.6812" height="62.9368" rx="1" stroke="#262F3E" stroke-width="2"/>
<rect x="410.638" y="345.909" width="62.6812" height="62.9368" rx="1" stroke="#262F3E" stroke-width="2"/>
<rect x="341.086" y="345.909" width="62.6812" height="62.9368" rx="1" stroke="#262F3E" stroke-width="2"/>
<rect x="271.533" y="345.909" width="62.6812" height="62.9368" rx="1" stroke="#262F3E" stroke-width="2"/>
<rect x="826.848" y="345.909" width="62.6812" height="62.9368" rx="1" stroke="#262F3E" stroke-width="2"/>
<rect x="896" y="346" width="114" height="63" rx="1" stroke="#262F3E" stroke-width="2"/>
<rect x="757.848" y="345.909" width="62.6812" height="62.9368" rx="1" stroke="#262F3E" stroke-width="2"/>
<rect x="1016.85" y="345.909" width="62.6812" height="62.9368" rx="1" stroke="#262F3E" stroke-width="2"/>
<rect x="1085.98" y="345.909" width="62.6812" height="62.9368" rx="1" stroke="#262F3E" stroke-width="2"/>
<rect x="1086" y="140" width="63.0845" height="64.9131" rx="1" stroke="#262F3E" stroke-width="2"/>
<rect x="1085.98" y="276.909" width="62.6812" height="62.9368" rx="1" stroke="#262F3E" stroke-width="2"/>
<rect x="1085.99" y="210.782" width="62.6994" height="60.194" rx="1" stroke="#262F3E" stroke-width="2"/>
<rect x="41" y="211" width="101" height="60" rx="1" stroke="#262F3E" stroke-width="2"/>
<rect x="980" y="211" width="99" height="60" rx="1" stroke="#262F3E" stroke-width="2"/>
<rect x="201.981" y="345.909" width="62.6812" height="62.9368" rx="1" stroke="#262F3E" stroke-width="2"/>
<rect x="41" y="415" width="85" height="63" rx="1" stroke="#262F3E" stroke-width="2"/>
<rect x="133" y="415" width="79" height="63" rx="1" stroke="#262F3E" stroke-width="2"/>
<rect x="219" y="415" width="79" height="63" rx="1" stroke="#262F3E" stroke-width="2"/>
<rect x="305" y="415" width="429" height="63" rx="1" stroke="#262F3E" stroke-width="2"/>
<rect x="741" y="415" width="79" height="63" rx="1" stroke="#262F3E" stroke-width="2"/>
<rect x="827" y="415" width="80" height="63" rx="1" stroke="#262F3E" stroke-width="2"/>
<rect x="1017" y="415" width="62" height="63" rx="1" stroke="#262F3E" stroke-width="2"/>
<rect x="1086" y="415" width="63" height="63" rx="1" stroke="#262F3E" stroke-width="2"/>
<rect x="947" y="415" width="63" height="63" rx="1" stroke="#262F3E" stroke-width="2"/>
<rect x="181" y="46" width="63.0845" height="64.9131" rx="1" stroke="#262F3E" stroke-width="2"/>
<rect x="42" y="46" width="63.0845" height="64.9131" rx="1" stroke="#262F3E" stroke-width="2"/>
<rect x="251" y="46" width="63.0845" height="64.9131" rx="1" stroke="#262F3E" stroke-width="2"/>
<rect x="321" y="46" width="63.0845" height="64.9131" rx="1" stroke="#262F3E" stroke-width="2"/>
<rect x="391" y="46" width="63.0845" height="64.9131" rx="1" stroke="#262F3E" stroke-width="2"/>
<rect x="482" y="46" width="63.0845" height="64.9131" rx="1" stroke="#262F3E" stroke-width="2"/>
<rect x="784" y="46" width="63.0845" height="64.9131" rx="1" stroke="#262F3E" stroke-width="2"/>
<rect x="552" y="46" width="63.0845" height="64.9131" rx="1" stroke="#262F3E" stroke-width="2"/>
<rect x="854" y="46" width="63.0845" height="64.9131" rx="1" stroke="#262F3E" stroke-width="2"/>
<rect x="622" y="46" width="63.0845" height="64.9131" rx="1" stroke="#262F3E" stroke-width="2"/>
<rect x="924" y="46" width="63.0845" height="64.9131" rx="1" stroke="#262F3E" stroke-width="2"/>
<rect x="692" y="46" width="63.0845" height="64.9131" rx="1" stroke="#262F3E" stroke-width="2"/>
<rect x="994" y="46" width="63.0845" height="64.9131" rx="1" stroke="#262F3E" stroke-width="2"/>
<g style="mix-blend-mode:soft-light" filter="url(#filter1_df_29_71)">
<rect x="610" y="147" width="45" height="51" rx="7" fill="url(#paint1_linear_29_71)" stroke="white" stroke-width="3"/>
<rect x="680" y="147" width="45" height="51" rx="7" fill="url(#paint2_linear_29_71)" stroke="white" stroke-width="3"/>
<rect x="750" y="147" width="45" height="51" rx="7" fill="url(#paint3_linear_29_71)" stroke="white" stroke-width="3"/>
<rect x="820" y="147" width="45" height="51" rx="7" fill="url(#paint4_linear_29_71)" stroke="white" stroke-width="3"/>
<rect x="890" y="147" width="45" height="51" rx="7" fill="url(#paint5_linear_29_71)" stroke="white" stroke-width="3"/>
<rect x="960" y="147" width="110" height="51" rx="7" fill="url(#paint6_linear_29_71)" stroke="white" stroke-width="3"/>
<rect x="540" y="147" width="45" height="51" rx="7" fill="url(#paint7_linear_29_71)" stroke="white" stroke-width="3"/>
<rect x="470" y="147" width="45" height="51" rx="7" fill="url(#paint8_linear_29_71)" stroke="white" stroke-width="3"/>
<rect x="400" y="147" width="45" height="51" rx="7" fill="url(#paint9_linear_29_71)" stroke="white" stroke-width="3"/>
<rect x="330" y="147" width="45" height="51" rx="7" fill="url(#paint10_linear_29_71)" stroke="white" stroke-width="3"/>
<rect x="260" y="147" width="45" height="51" rx="7" fill="url(#paint11_linear_29_71)" stroke="white" stroke-width="3"/>
<rect x="190" y="147" width="45" height="51" rx="7" fill="url(#paint12_linear_29_71)" stroke="white" stroke-width="3"/>
<rect x="120" y="147" width="45" height="51" rx="7" fill="url(#paint13_linear_29_71)" stroke="white" stroke-width="3"/>
<rect x="50" y="147" width="45" height="51" rx="7" fill="url(#paint14_linear_29_71)" stroke="white" stroke-width="3"/>
<rect x="643.936" y="217.273" width="44.7253" height="47.2924" rx="7" fill="url(#paint15_linear_29_71)" stroke="white" stroke-width="3"/>
<rect x="574.363" y="217.273" width="44.7253" height="47.2924" rx="7" fill="url(#paint16_linear_29_71)" stroke="white" stroke-width="3"/>
<rect x="504.79" y="217.273" width="44.7253" height="47.2924" rx="7" fill="url(#paint17_linear_29_71)" stroke="white" stroke-width="3"/>
<rect x="435.218" y="217.273" width="44.7253" height="47.2924" rx="7" fill="url(#paint18_linear_29_71)" stroke="white" stroke-width="3"/>
<rect x="365.645" y="217.273" width="44.7253" height="47.2924" rx="7" fill="url(#paint19_linear_29_71)" stroke="white" stroke-width="3"/>
<rect x="296.072" y="217.273" width="44.7253" height="47.2924" rx="7" fill="url(#paint20_linear_29_71)" stroke="white" stroke-width="3"/>
<rect x="226.499" y="217.273" width="44.7253" height="47.2924" rx="7" fill="url(#paint21_linear_29_71)" stroke="white" stroke-width="3"/>
<rect x="156.927" y="217.273" width="44.7253" height="47.2924" rx="7" fill="url(#paint22_linear_29_71)" stroke="white" stroke-width="3"/>
<rect x="661.79" y="283.696" width="44.7123" height="49.4473" rx="7" fill="url(#paint23_linear_29_71)" stroke="white" stroke-width="3"/>
<rect x="592.238" y="283.696" width="44.7123" height="49.4473" rx="7" fill="url(#paint24_linear_29_71)" stroke="white" stroke-width="3"/>
<rect x="522.686" y="283.696" width="44.7123" height="49.4473" rx="7" fill="url(#paint25_linear_29_71)" stroke="white" stroke-width="3"/>
<rect x="453.133" y="283.696" width="44.7123" height="49.4473" rx="7" fill="url(#paint26_linear_29_71)" stroke="white" stroke-width="3"/>
<rect x="383.581" y="283.696" width="44.7123" height="49.4473" rx="7" fill="url(#paint27_linear_29_71)" stroke="white" stroke-width="3"/>
<rect x="314.028" y="283.696" width="44.7123" height="49.4473" rx="7" fill="url(#paint28_linear_29_71)" stroke="white" stroke-width="3"/>
<rect x="244.476" y="283.696" width="44.7123" height="49.4473" rx="7" fill="url(#paint29_linear_29_71)" stroke="white" stroke-width="3"/>
<rect x="174.923" y="283.696" width="44.7123" height="49.4473" rx="7" fill="url(#paint30_linear_29_71)" stroke="white" stroke-width="3"/>
<rect x="50" y="284" width="100" height="49" rx="7" fill="url(#paint31_linear_29_71)" stroke="white" stroke-width="3"/>
<rect x="50" y="353" width="136" height="49" rx="7" fill="url(#paint32_linear_29_71)" stroke="white" stroke-width="3"/>
<rect x="712.936" y="217.273" width="44.7253" height="47.2924" rx="7" fill="url(#paint33_linear_29_71)" stroke="white" stroke-width="3"/>
<rect x="781.936" y="217.273" width="44.7253" height="47.2924" rx="7" fill="url(#paint34_linear_29_71)" stroke="white" stroke-width="3"/>
<rect x="850.936" y="217.273" width="44.7253" height="47.2924" rx="7" fill="url(#paint35_linear_29_71)" stroke="white" stroke-width="3"/>
<rect x="919.936" y="217.273" width="44.7253" height="47.2924" rx="7" fill="url(#paint36_linear_29_71)" stroke="white" stroke-width="3"/>
<rect x="730.79" y="283.696" width="44.7123" height="49.4473" rx="7" fill="url(#paint37_linear_29_71)" stroke="white" stroke-width="3"/>
<rect x="799.79" y="283.696" width="44.7123" height="49.4473" rx="7" fill="url(#paint38_linear_29_71)" stroke="white" stroke-width="3"/>
<rect x="868.79" y="283.696" width="44.7123" height="49.4473" rx="7" fill="url(#paint39_linear_29_71)" stroke="white" stroke-width="3"/>
<rect x="939" y="284" width="131" height="49" rx="7" fill="url(#paint40_linear_29_71)" stroke="white" stroke-width="3"/>
<rect x="697.79" y="352.696" width="44.7123" height="49.4473" rx="7" fill="url(#paint41_linear_29_71)" stroke="white" stroke-width="3"/>
<rect x="628.238" y="352.696" width="44.7123" height="49.4473" rx="7" fill="url(#paint42_linear_29_71)" stroke="white" stroke-width="3"/>
<rect x="558.686" y="352.696" width="44.7123" height="49.4473" rx="7" fill="url(#paint43_linear_29_71)" stroke="white" stroke-width="3"/>
<rect x="489.133" y="352.696" width="44.7123" height="49.4473" rx="7" fill="url(#paint44_linear_29_71)" stroke="white" stroke-width="3"/>
<rect x="419.581" y="352.696" width="44.7123" height="49.4473" rx="7" fill="url(#paint45_linear_29_71)" stroke="white" stroke-width="3"/>
<rect x="350.028" y="352.696" width="44.7123" height="49.4473" rx="7" fill="url(#paint46_linear_29_71)" stroke="white" stroke-width="3"/>
<rect x="280.476" y="352.696" width="44.7123" height="49.4473" rx="7" fill="url(#paint47_linear_29_71)" stroke="white" stroke-width="3"/>
<rect x="835.79" y="352.696" width="44.7123" height="49.4473" rx="7" fill="url(#paint48_linear_29_71)" stroke="white" stroke-width="3"/>
<rect x="905" y="353" width="95" height="49" rx="7" fill="url(#paint49_linear_29_71)" stroke="white" stroke-width="3"/>
<rect x="766.79" y="352.696" width="44.7123" height="49.4473" rx="7" fill="url(#paint50_linear_29_71)" stroke="white" stroke-width="3"/>
<rect x="1025.79" y="352.696" width="44.7123" height="49.4473" rx="7" fill="url(#paint51_linear_29_71)" stroke="white" stroke-width="3"/>
<rect x="1094.92" y="352.696" width="44.7123" height="49.4473" rx="7" fill="url(#paint52_linear_29_71)" stroke="white" stroke-width="3"/>
<rect x="1095" y="147" width="45" height="51" rx="7" fill="url(#paint53_linear_29_71)" stroke="white" stroke-width="3"/>
<rect x="1094.92" y="283.696" width="44.7123" height="49.4473" rx="7" fill="url(#paint54_linear_29_71)" stroke="white" stroke-width="3"/>
<rect x="1094.94" y="217.273" width="44.7253" height="47.2924" rx="7" fill="url(#paint55_linear_29_71)" stroke="white" stroke-width="3"/>
<rect x="50" y="217" width="83" height="48" rx="7" fill="url(#paint56_linear_29_71)" stroke="white" stroke-width="3"/>
<rect x="989" y="217" width="81" height="48" rx="7" fill="url(#paint57_linear_29_71)" stroke="white" stroke-width="3"/>
<rect x="210.923" y="352.696" width="44.7123" height="49.4473" rx="7" fill="url(#paint58_linear_29_71)" stroke="white" stroke-width="3"/>
<rect x="49" y="422" width="69" height="49" rx="7" fill="url(#paint59_linear_29_71)" stroke="white" stroke-width="3"/>
<rect x="142" y="422" width="62" height="49" rx="7" fill="url(#paint60_linear_29_71)" stroke="white" stroke-width="3"/>
<rect x="228" y="422" width="61" height="49" rx="7" fill="url(#paint61_linear_29_71)" stroke="white" stroke-width="3"/>
<rect x="316" y="422" width="407" height="49" rx="7" fill="url(#paint62_linear_29_71)" stroke="white" stroke-width="3"/>
<rect x="749" y="422" width="63" height="49" rx="7" fill="url(#paint63_linear_29_71)" stroke="white" stroke-width="3"/>
<rect x="836" y="422" width="62" height="49" rx="7" fill="url(#paint64_linear_29_71)" stroke="white" stroke-width="3"/>
<rect x="1026" y="422" width="45" height="49" rx="7" fill="url(#paint65_linear_29_71)" stroke="white" stroke-width="3"/>
<rect x="1095" y="422" width="45" height="49" rx="7" fill="url(#paint66_linear_29_71)" stroke="white" stroke-width="3"/>
<rect x="956" y="422" width="45" height="49" rx="7" fill="url(#paint67_linear_29_71)" stroke="white" stroke-width="3"/>
</g>
<g style="mix-blend-mode:soft-light">
<rect x="609.5" y="146.5" width="46" height="52" rx="7.5" stroke="white"/>
<rect x="679.5" y="146.5" width="46" height="52" rx="7.5" stroke="white"/>
<rect x="749.5" y="146.5" width="46" height="52" rx="7.5" stroke="white"/>
<rect x="819.5" y="146.5" width="46" height="52" rx="7.5" stroke="white"/>
<rect x="889.5" y="146.5" width="46" height="52" rx="7.5" stroke="white"/>
<rect x="959.5" y="146.5" width="111" height="52" rx="7.5" stroke="white"/>
<rect x="539.5" y="146.5" width="46" height="52" rx="7.5" stroke="white"/>
<rect x="469.5" y="146.5" width="46" height="52" rx="7.5" stroke="white"/>
<rect x="399.5" y="146.5" width="46" height="52" rx="7.5" stroke="white"/>
<rect x="329.5" y="146.5" width="46" height="52" rx="7.5" stroke="white"/>
<rect x="259.5" y="146.5" width="46" height="52" rx="7.5" stroke="white"/>
<rect x="189.5" y="146.5" width="46" height="52" rx="7.5" stroke="white"/>
<rect x="119.5" y="146.5" width="46" height="52" rx="7.5" stroke="white"/>
<rect x="49.5" y="146.5" width="46" height="52" rx="7.5" stroke="white"/>
<rect x="643.436" y="216.773" width="45.7253" height="48.2924" rx="7.5" stroke="white"/>
<rect x="573.863" y="216.773" width="45.7253" height="48.2924" rx="7.5" stroke="white"/>
<rect x="504.29" y="216.773" width="45.7253" height="48.2924" rx="7.5" stroke="white"/>
<rect x="434.718" y="216.773" width="45.7253" height="48.2924" rx="7.5" stroke="white"/>
<rect x="365.145" y="216.773" width="45.7253" height="48.2924" rx="7.5" stroke="white"/>
<rect x="295.572" y="216.773" width="45.7253" height="48.2924" rx="7.5" stroke="white"/>
<rect x="225.999" y="216.773" width="45.7253" height="48.2924" rx="7.5" stroke="white"/>
<rect x="156.427" y="216.773" width="45.7253" height="48.2924" rx="7.5" stroke="white"/>
<rect x="661.29" y="283.196" width="45.7123" height="50.4473" rx="7.5" stroke="white"/>
<rect x="591.738" y="283.196" width="45.7123" height="50.4473" rx="7.5" stroke="white"/>
<rect x="522.186" y="283.196" width="45.7123" height="50.4473" rx="7.5" stroke="white"/>
<rect x="452.633" y="283.196" width="45.7123" height="50.4473" rx="7.5" stroke="white"/>
<rect x="383.081" y="283.196" width="45.7123" height="50.4473" rx="7.5" stroke="white"/>
<rect x="313.528" y="283.196" width="45.7123" height="50.4473" rx="7.5" stroke="white"/>
<rect x="243.976" y="283.196" width="45.7123" height="50.4473" rx="7.5" stroke="white"/>
<rect x="174.423" y="283.196" width="45.7123" height="50.4473" rx="7.5" stroke="white"/>
<rect x="49.5" y="283.5" width="101" height="50" rx="7.5" stroke="white"/>
<rect x="49.5" y="352.5" width="137" height="50" rx="7.5" stroke="white"/>
<rect x="712.436" y="216.773" width="45.7253" height="48.2924" rx="7.5" stroke="white"/>
<rect x="781.436" y="216.773" width="45.7253" height="48.2924" rx="7.5" stroke="white"/>
<rect x="850.436" y="216.773" width="45.7253" height="48.2924" rx="7.5" stroke="white"/>
<rect x="919.436" y="216.773" width="45.7253" height="48.2924" rx="7.5" stroke="white"/>
<rect x="730.29" y="283.196" width="45.7123" height="50.4473" rx="7.5" stroke="white"/>
<rect x="799.29" y="283.196" width="45.7123" height="50.4473" rx="7.5" stroke="white"/>
<rect x="868.29" y="283.196" width="45.7123" height="50.4473" rx="7.5" stroke="white"/>
<rect x="938.5" y="283.5" width="132" height="50" rx="7.5" stroke="white"/>
<rect x="697.29" y="352.196" width="45.7123" height="50.4473" rx="7.5" stroke="white"/>
<rect x="627.738" y="352.196" width="45.7123" height="50.4473" rx="7.5" stroke="white"/>
<rect x="558.186" y="352.196" width="45.7123" height="50.4473" rx="7.5" stroke="white"/>
<rect x="488.633" y="352.196" width="45.7123" height="50.4473" rx="7.5" stroke="white"/>
<rect x="419.081" y="352.196" width="45.7123" height="50.4473" rx="7.5" stroke="white"/>
<rect x="349.528" y="352.196" width="45.7123" height="50.4473" rx="7.5" stroke="white"/>
<rect x="279.976" y="352.196" width="45.7123" height="50.4473" rx="7.5" stroke="white"/>
<rect x="835.29" y="352.196" width="45.7123" height="50.4473" rx="7.5" stroke="white"/>
<rect x="904.5" y="352.5" width="96" height="50" rx="7.5" stroke="white"/>
<rect x="766.29" y="352.196" width="45.7123" height="50.4473" rx="7.5" stroke="white"/>
<rect x="1025.29" y="352.196" width="45.7123" height="50.4473" rx="7.5" stroke="white"/>
<rect x="1094.42" y="352.196" width="45.7123" height="50.4473" rx="7.5" stroke="white"/>
<rect x="1094.5" y="146.5" width="46" height="52" rx="7.5" stroke="white"/>
<rect x="1094.42" y="283.196" width="45.7123" height="50.4473" rx="7.5" stroke="white"/>
<rect x="1094.44" y="216.773" width="45.7253" height="48.2924" rx="7.5" stroke="white"/>
<rect x="49.5" y="216.5" width="84" height="49" rx="7.5" stroke="white"/>
<rect x="988.5" y="216.5" width="82" height="49" rx="7.5" stroke="white"/>
<rect x="210.423" y="352.196" width="45.7123" height="50.4473" rx="7.5" stroke="white"/>
<rect x="48.5" y="421.5" width="70" height="50" rx="7.5" stroke="white"/>
<rect x="141.5" y="421.5" width="63" height="50" rx="7.5" stroke="white"/>
<rect x="227.5" y="421.5" width="62" height="50" rx="7.5" stroke="white"/>
<rect x="315.5" y="421.5" width="408" height="50" rx="7.5" stroke="white"/>
<rect x="748.5" y="421.5" width="64" height="50" rx="7.5" stroke="white"/>
<rect x="835.5" y="421.5" width="63" height="50" rx="7.5" stroke="white"/>
<rect x="1025.5" y="421.5" width="46" height="50" rx="7.5" stroke="white"/>
<rect x="1094.5" y="421.5" width="46" height="50" rx="7.5" stroke="white"/>
<rect x="955.5" y="421.5" width="46" height="50" rx="7.5" stroke="white"/>
</g>
<g filter="url(#filter2_d_29_71)">
<rect x="1078" y="38" width="80" height="80" rx="40" fill="#999BAF"/>
<rect x="1078" y="38" width="80" height="80" rx="40" stroke="#262F3E" stroke-width="2"/>
</g>
<rect x="1081" y="41" width="74" height="74" rx="37" fill="url(#paint68_linear_29_71)" stroke="#262F3E" stroke-width="2"/>
<rect x="1090" y="50" width="57" height="57" rx="28.5" fill="#F2F4FA" stroke="#7B8494" stroke-width="3"/>
<g filter="url(#filter3_d_29_71)">
<rect x="190" y="53" width="45" height="51" rx="7" fill="#F2F4FA"/>
<rect x="51" y="53" width="45" height="51" rx="7" fill="#F2F4FA"/>
<rect x="260" y="53" width="45" height="51" rx="7" fill="#F2F4FA"/>
<rect x="330" y="53" width="45" height="51" rx="7" fill="#F2F4FA"/>
<rect x="400" y="53" width="45" height="51" rx="7" fill="#F2F4FA"/>
<rect x="491" y="53" width="45" height="51" rx="7" fill="#F2F4FA"/>
<rect x="793" y="53" width="45" height="51" rx="7" fill="#F2F4FA"/>
<rect x="561" y="53" width="45" height="51" rx="7" fill="#F2F4FA"/>
<rect x="863" y="53" width="45" height="51" rx="7" fill="#F2F4FA"/>
<rect x="631" y="53" width="45" height="51" rx="7" fill="#F2F4FA"/>
<rect x="933" y="53" width="45" height="51" rx="7" fill="#F2F4FA"/>
<rect x="701" y="53" width="45" height="51" rx="7" fill="#F2F4FA"/>
<rect x="1003" y="53" width="45" height="51" rx="7" fill="#F2F4FA"/>
</g>
<defs>
<filter id="filter0_d_29_71" x="0" y="0" width="1205" height="534" filterUnits="userSpaceOnUse" color-interpolation-filters="sRGB">
<feFlood flood-opacity="0" result="BackgroundImageFix"/>
<feColorMatrix in="SourceAlpha" type="matrix" values="0 0 0 0 0 0 0 0 0 0 0 0 0 0 0 0 0 0 127 0" result="hardAlpha"/>
<feOffset dx="5" dy="5"/>
<feGaussianBlur stdDeviation="5"/>
<feComposite in2="hardAlpha" operator="out"/>
<feColorMatrix type="matrix" values="0 0 0 0 0.14153 0 0 0 0 0.168904 0 0 0 0 0.278402 0 0 0 0.33 0"/>
<feBlend mode="normal" in2="BackgroundImageFix" result="effect1_dropShadow_29_71"/>
<feBlend mode="normal" in="SourceGraphic" in2="effect1_dropShadow_29_71" result="shape"/>
</filter>
<filter id="filter1_df_29_71" x="41.5" y="141.5" width="1114" height="347" filterUnits="userSpaceOnUse" color-interpolation-filters="sRGB">
<feFlood flood-opacity="0" result="BackgroundImageFix"/>
<feColorMatrix in="SourceAlpha" type="matrix" values="0 0 0 0 0 0 0 0 0 0 0 0 0 0 0 0 0 0 127 0" result="hardAlpha"/>
<feOffset dx="4" dy="6"/>
<feGaussianBlur stdDeviation="5"/>
<feComposite in2="hardAlpha" operator="out"/>
<feColorMatrix type="matrix" values="0 0 0 0 0.0536573 0 0 0 0 0.403952 0 0 0 0 0.510563 0 0 0 1 0"/>
<feBlend mode="normal" in2="BackgroundImageFix" result="effect1_dropShadow_29_71"/>
<feBlend mode="normal" in="SourceGraphic" in2="effect1_dropShadow_29_71" result="shape"/>
<feGaussianBlur stdDeviation="1" result="effect2_foregroundBlur_29_71"/>
</filter>
<filter id="filter2_d_29_71" x="1074" y="34" width="94" height="94" filterUnits="userSpaceOnUse" color-interpolation-filters="sRGB">
<feFlood flood-opacity="0" result="BackgroundImageFix"/>
<feColorMatrix in="SourceAlpha" type="matrix" values="0 0 0 0 0 0 0 0 0 0 0 0 0 0 0 0 0 0 127 0" result="hardAlpha"/>
<feOffset dx="3" dy="3"/>
<feGaussianBlur stdDeviation="3"/>
<feComposite in2="hardAlpha" operator="out"/>
<feColorMatrix type="matrix" values="0 0 0 0 0.169404 0 0 0 0 0.164969 0 0 0 0 0.218197 0 0 0 0.25 0"/>
<feBlend mode="normal" in2="BackgroundImageFix" result="effect1_dropShadow_29_71"/>
<feBlend mode="normal" in="SourceGraphic" in2="effect1_dropShadow_29_71" result="shape"/>
</filter>
<filter id="filter3_d_29_71" x="45" y="47" width="1017" height="71" filterUnits="userSpaceOnUse" color-interpolation-filters="sRGB">
<feFlood flood-opacity="0" result="BackgroundImageFix"/>
<feColorMatrix in="SourceAlpha" type="matrix" values="0 0 0 0 0 0 0 0 0 0 0 0 0 0 0 0 0 0 127 0" result="hardAlpha"/>
<feOffset dx="4" dy="4"/>
<feGaussianBlur stdDeviation="5"/>
<feComposite in2="hardAlpha" operator="out"/>
<feColorMatrix type="matrix" values="0 0 0 0 0.137255 0 0 0 0 0.352941 0 0 0 0 0.545098 0 0 0 0.25 0"/>
<feBlend mode="normal" in2="BackgroundImageFix" result="effect1_dropShadow_29_71"/>
<feBlend mode="normal" in="SourceGraphic" in2="effect1_dropShadow_29_71" result="shape"/>
</filter>
<linearGradient id="paint0_linear_29_71" x1="547" y1="137" x2="547" y2="481" gradientUnits="userSpaceOnUse">
<stop stop-color="#CAEBF8"/>
<stop offset="1" stop-color="#4391DA"/>
</linearGradient>
<linearGradient id="paint1_linear_29_71" x1="632.005" y1="199.181" x2="632.005" y2="144.167" gradientUnits="userSpaceOnUse">
<stop stop-color="#CAE1FB"/>
<stop offset="1" stop-color="#4F98ED"/>
</linearGradient>
<linearGradient id="paint2_linear_29_71" x1="702.005" y1="199.181" x2="702.005" y2="144.167" gradientUnits="userSpaceOnUse">
<stop stop-color="#CAE1FB"/>
<stop offset="1" stop-color="#4F98ED"/>
</linearGradient>
<linearGradient id="paint3_linear_29_71" x1="772.005" y1="199.181" x2="772.005" y2="144.167" gradientUnits="userSpaceOnUse">
<stop stop-color="#CAE1FB"/>
<stop offset="1" stop-color="#4F98ED"/>
</linearGradient>
<linearGradient id="paint4_linear_29_71" x1="842.005" y1="199.181" x2="842.005" y2="144.167" gradientUnits="userSpaceOnUse">
<stop stop-color="#CAE1FB"/>
<stop offset="1" stop-color="#4F98ED"/>
</linearGradient>
<linearGradient id="paint5_linear_29_71" x1="912.005" y1="199.181" x2="912.005" y2="144.167" gradientUnits="userSpaceOnUse">
<stop stop-color="#CAE1FB"/>
<stop offset="1" stop-color="#4F98ED"/>
</linearGradient>
<linearGradient id="paint6_linear_29_71" x1="1013.79" y1="199.181" x2="1013.79" y2="144.167" gradientUnits="userSpaceOnUse">
<stop stop-color="#CAE1FB"/>
<stop offset="1" stop-color="#4F98ED"/>
</linearGradient>
<linearGradient id="paint7_linear_29_71" x1="562.005" y1="199.181" x2="562.005" y2="144.167" gradientUnits="userSpaceOnUse">
<stop stop-color="#CAE1FB"/>
<stop offset="1" stop-color="#4F98ED"/>
</linearGradient>
<linearGradient id="paint8_linear_29_71" x1="492.005" y1="199.181" x2="492.005" y2="144.167" gradientUnits="userSpaceOnUse">
<stop stop-color="#CAE1FB"/>
<stop offset="1" stop-color="#4F98ED"/>
</linearGradient>
<linearGradient id="paint9_linear_29_71" x1="422.005" y1="199.181" x2="422.005" y2="144.167" gradientUnits="userSpaceOnUse">
<stop stop-color="#CAE1FB"/>
<stop offset="1" stop-color="#4F98ED"/>
</linearGradient>
<linearGradient id="paint10_linear_29_71" x1="352.005" y1="199.181" x2="352.005" y2="144.167" gradientUnits="userSpaceOnUse">
<stop stop-color="#CAE1FB"/>
<stop offset="1" stop-color="#4F98ED"/>
</linearGradient>
<linearGradient id="paint11_linear_29_71" x1="282.005" y1="199.181" x2="282.005" y2="144.167" gradientUnits="userSpaceOnUse">
<stop stop-color="#CAE1FB"/>
<stop offset="1" stop-color="#4F98ED"/>
</linearGradient>
<linearGradient id="paint12_linear_29_71" x1="212.005" y1="199.181" x2="212.005" y2="144.167" gradientUnits="userSpaceOnUse">
<stop stop-color="#CAE1FB"/>
<stop offset="1" stop-color="#4F98ED"/>
</linearGradient>
<linearGradient id="paint13_linear_29_71" x1="142.005" y1="199.181" x2="142.005" y2="144.167" gradientUnits="userSpaceOnUse">
<stop stop-color="#CAE1FB"/>
<stop offset="1" stop-color="#4F98ED"/>
</linearGradient>
<linearGradient id="paint14_linear_29_71" x1="72.005" y1="199.181" x2="72.005" y2="144.167" gradientUnits="userSpaceOnUse">
<stop stop-color="#CAE1FB"/>
<stop offset="1" stop-color="#4F98ED"/>
</linearGradient>
<linearGradient id="paint15_linear_29_71" x1="665.806" y1="265.66" x2="665.806" y2="214.646" gradientUnits="userSpaceOnUse">
<stop stop-color="#CAE1FB"/>
<stop offset="1" stop-color="#4F98ED"/>
</linearGradient>
<linearGradient id="paint16_linear_29_71" x1="596.234" y1="265.66" x2="596.234" y2="214.646" gradientUnits="userSpaceOnUse">
<stop stop-color="#CAE1FB"/>
<stop offset="1" stop-color="#4F98ED"/>
</linearGradient>
<linearGradient id="paint17_linear_29_71" x1="526.661" y1="265.66" x2="526.661" y2="214.646" gradientUnits="userSpaceOnUse">
<stop stop-color="#CAE1FB"/>
<stop offset="1" stop-color="#4F98ED"/>
</linearGradient>
<linearGradient id="paint18_linear_29_71" x1="457.088" y1="265.66" x2="457.088" y2="214.646" gradientUnits="userSpaceOnUse">
<stop stop-color="#CAE1FB"/>
<stop offset="1" stop-color="#4F98ED"/>
</linearGradient>
<linearGradient id="paint19_linear_29_71" x1="387.516" y1="265.66" x2="387.516" y2="214.646" gradientUnits="userSpaceOnUse">
<stop stop-color="#CAE1FB"/>
<stop offset="1" stop-color="#4F98ED"/>
</linearGradient>
<linearGradient id="paint20_linear_29_71" x1="317.943" y1="265.66" x2="317.943" y2="214.646" gradientUnits="userSpaceOnUse">
<stop stop-color="#CAE1FB"/>
<stop offset="1" stop-color="#4F98ED"/>
</linearGradient>
<linearGradient id="paint21_linear_29_71" x1="248.37" y1="265.66" x2="248.37" y2="214.646" gradientUnits="userSpaceOnUse">
<stop stop-color="#CAE1FB"/>
<stop offset="1" stop-color="#4F98ED"/>
</linearGradient>
<linearGradient id="paint22_linear_29_71" x1="178.797" y1="265.66" x2="178.797" y2="214.646" gradientUnits="userSpaceOnUse">
<stop stop-color="#CAE1FB"/>
<stop offset="1" stop-color="#4F98ED"/>
</linearGradient>
<linearGradient id="paint23_linear_29_71" x1="683.655" y1="334.288" x2="683.655" y2="280.948" gradientUnits="userSpaceOnUse">
<stop stop-color="#CAE1FB"/>
<stop offset="1" stop-color="#4F98ED"/>
</linearGradient>
<linearGradient id="paint24_linear_29_71" x1="614.102" y1="334.288" x2="614.102" y2="280.948" gradientUnits="userSpaceOnUse">
<stop stop-color="#CAE1FB"/>
<stop offset="1" stop-color="#4F98ED"/>
</linearGradient>
<linearGradient id="paint25_linear_29_71" x1="544.55" y1="334.288" x2="544.55" y2="280.948" gradientUnits="userSpaceOnUse">
<stop stop-color="#CAE1FB"/>
<stop offset="1" stop-color="#4F98ED"/>
</linearGradient>
<linearGradient id="paint26_linear_29_71" x1="474.997" y1="334.288" x2="474.997" y2="280.948" gradientUnits="userSpaceOnUse">
<stop stop-color="#CAE1FB"/>
<stop offset="1" stop-color="#4F98ED"/>
</linearGradient>
<linearGradient id="paint27_linear_29_71" x1="405.445" y1="334.288" x2="405.445" y2="280.948" gradientUnits="userSpaceOnUse">
<stop stop-color="#CAE1FB"/>
<stop offset="1" stop-color="#4F98ED"/>
</linearGradient>
<linearGradient id="paint28_linear_29_71" x1="335.893" y1="334.288" x2="335.893" y2="280.948" gradientUnits="userSpaceOnUse">
<stop stop-color="#CAE1FB"/>
<stop offset="1" stop-color="#4F98ED"/>
</linearGradient>
<linearGradient id="paint29_linear_29_71" x1="266.34" y1="334.288" x2="266.34" y2="280.948" gradientUnits="userSpaceOnUse">
<stop stop-color="#CAE1FB"/>
<stop offset="1" stop-color="#4F98ED"/>
</linearGradient>
<linearGradient id="paint30_linear_29_71" x1="196.788" y1="334.288" x2="196.788" y2="280.948" gradientUnits="userSpaceOnUse">
<stop stop-color="#CAE1FB"/>
<stop offset="1" stop-color="#4F98ED"/>
</linearGradient>
<linearGradient id="paint31_linear_29_71" x1="98.9001" y1="334.134" x2="98.9001" y2="281.278" gradientUnits="userSpaceOnUse">
<stop stop-color="#CAE1FB"/>
<stop offset="1" stop-color="#4F98ED"/>
</linearGradient>
<linearGradient id="paint32_linear_29_71" x1="116.504" y1="403.134" x2="116.504" y2="350.278" gradientUnits="userSpaceOnUse">
<stop stop-color="#CAE1FB"/>
<stop offset="1" stop-color="#4F98ED"/>
</linearGradient>
<linearGradient id="paint33_linear_29_71" x1="734.806" y1="265.66" x2="734.806" y2="214.646" gradientUnits="userSpaceOnUse">
<stop stop-color="#CAE1FB"/>
<stop offset="1" stop-color="#4F98ED"/>
</linearGradient>
<linearGradient id="paint34_linear_29_71" x1="803.806" y1="265.66" x2="803.806" y2="214.646" gradientUnits="userSpaceOnUse">
<stop stop-color="#CAE1FB"/>
<stop offset="1" stop-color="#4F98ED"/>
</linearGradient>
<linearGradient id="paint35_linear_29_71" x1="872.806" y1="265.66" x2="872.806" y2="214.646" gradientUnits="userSpaceOnUse">
<stop stop-color="#CAE1FB"/>
<stop offset="1" stop-color="#4F98ED"/>
</linearGradient>
<linearGradient id="paint36_linear_29_71" x1="941.806" y1="265.66" x2="941.806" y2="214.646" gradientUnits="userSpaceOnUse">
<stop stop-color="#CAE1FB"/>
<stop offset="1" stop-color="#4F98ED"/>
</linearGradient>
<linearGradient id="paint37_linear_29_71" x1="752.655" y1="334.288" x2="752.655" y2="280.948" gradientUnits="userSpaceOnUse">
<stop stop-color="#CAE1FB"/>
<stop offset="1" stop-color="#4F98ED"/>
</linearGradient>
<linearGradient id="paint38_linear_29_71" x1="821.655" y1="334.288" x2="821.655" y2="280.948" gradientUnits="userSpaceOnUse">
<stop stop-color="#CAE1FB"/>
<stop offset="1" stop-color="#4F98ED"/>
</linearGradient>
<linearGradient id="paint39_linear_29_71" x1="890.655" y1="334.288" x2="890.655" y2="280.948" gradientUnits="userSpaceOnUse">
<stop stop-color="#CAE1FB"/>
<stop offset="1" stop-color="#4F98ED"/>
</linearGradient>
<linearGradient id="paint40_linear_29_71" x1="1003.06" y1="334.134" x2="1003.06" y2="281.278" gradientUnits="userSpaceOnUse">
<stop stop-color="#CAE1FB"/>
<stop offset="1" stop-color="#4F98ED"/>
</linearGradient>
<linearGradient id="paint41_linear_29_71" x1="719.655" y1="403.288" x2="719.655" y2="349.948" gradientUnits="userSpaceOnUse">
<stop stop-color="#CAE1FB"/>
<stop offset="1" stop-color="#4F98ED"/>
</linearGradient>
<linearGradient id="paint42_linear_29_71" x1="650.102" y1="403.288" x2="650.102" y2="349.948" gradientUnits="userSpaceOnUse">
<stop stop-color="#CAE1FB"/>
<stop offset="1" stop-color="#4F98ED"/>
</linearGradient>
<linearGradient id="paint43_linear_29_71" x1="580.55" y1="403.288" x2="580.55" y2="349.948" gradientUnits="userSpaceOnUse">
<stop stop-color="#CAE1FB"/>
<stop offset="1" stop-color="#4F98ED"/>
</linearGradient>
<linearGradient id="paint44_linear_29_71" x1="510.997" y1="403.288" x2="510.997" y2="349.948" gradientUnits="userSpaceOnUse">
<stop stop-color="#CAE1FB"/>
<stop offset="1" stop-color="#4F98ED"/>
</linearGradient>
<linearGradient id="paint45_linear_29_71" x1="441.445" y1="403.288" x2="441.445" y2="349.948" gradientUnits="userSpaceOnUse">
<stop stop-color="#CAE1FB"/>
<stop offset="1" stop-color="#4F98ED"/>
</linearGradient>
<linearGradient id="paint46_linear_29_71" x1="371.893" y1="403.288" x2="371.893" y2="349.948" gradientUnits="userSpaceOnUse">
<stop stop-color="#CAE1FB"/>
<stop offset="1" stop-color="#4F98ED"/>
</linearGradient>
<linearGradient id="paint47_linear_29_71" x1="302.34" y1="403.288" x2="302.34" y2="349.948" gradientUnits="userSpaceOnUse">
<stop stop-color="#CAE1FB"/>
<stop offset="1" stop-color="#4F98ED"/>
</linearGradient>
<linearGradient id="paint48_linear_29_71" x1="857.655" y1="403.288" x2="857.655" y2="349.948" gradientUnits="userSpaceOnUse">
<stop stop-color="#CAE1FB"/>
<stop offset="1" stop-color="#4F98ED"/>
</linearGradient>
<linearGradient id="paint49_linear_29_71" x1="951.455" y1="403.134" x2="951.455" y2="350.278" gradientUnits="userSpaceOnUse">
<stop stop-color="#CAE1FB"/>
<stop offset="1" stop-color="#4F98ED"/>
</linearGradient>
<linearGradient id="paint50_linear_29_71" x1="788.655" y1="403.288" x2="788.655" y2="349.948" gradientUnits="userSpaceOnUse">
<stop stop-color="#CAE1FB"/>
<stop offset="1" stop-color="#4F98ED"/>
</linearGradient>
<linearGradient id="paint51_linear_29_71" x1="1047.65" y1="403.288" x2="1047.65" y2="349.948" gradientUnits="userSpaceOnUse">
<stop stop-color="#CAE1FB"/>
<stop offset="1" stop-color="#4F98ED"/>
</linearGradient>
<linearGradient id="paint52_linear_29_71" x1="1116.79" y1="403.288" x2="1116.79" y2="349.948" gradientUnits="userSpaceOnUse">
<stop stop-color="#CAE1FB"/>
<stop offset="1" stop-color="#4F98ED"/>
</linearGradient>
<linearGradient id="paint53_linear_29_71" x1="1117.01" y1="199.181" x2="1117.01" y2="144.167" gradientUnits="userSpaceOnUse">
<stop stop-color="#CAE1FB"/>
<stop offset="1" stop-color="#4F98ED"/>
</linearGradient>
<linearGradient id="paint54_linear_29_71" x1="1116.79" y1="334.288" x2="1116.79" y2="280.948" gradientUnits="userSpaceOnUse">
<stop stop-color="#CAE1FB"/>
<stop offset="1" stop-color="#4F98ED"/>
</linearGradient>
<linearGradient id="paint55_linear_29_71" x1="1116.81" y1="265.66" x2="1116.81" y2="214.646" gradientUnits="userSpaceOnUse">
<stop stop-color="#CAE1FB"/>
<stop offset="1" stop-color="#4F98ED"/>
</linearGradient>
<linearGradient id="paint56_linear_29_71" x1="90.5871" y1="266.111" x2="90.5871" y2="214.333" gradientUnits="userSpaceOnUse">
<stop stop-color="#CAE1FB"/>
<stop offset="1" stop-color="#4F98ED"/>
</linearGradient>
<linearGradient id="paint57_linear_29_71" x1="1028.61" y1="266.111" x2="1028.61" y2="214.333" gradientUnits="userSpaceOnUse">
<stop stop-color="#CAE1FB"/>
<stop offset="1" stop-color="#4F98ED"/>
</linearGradient>
<linearGradient id="paint58_linear_29_71" x1="232.788" y1="403.288" x2="232.788" y2="349.948" gradientUnits="userSpaceOnUse">
<stop stop-color="#CAE1FB"/>
<stop offset="1" stop-color="#4F98ED"/>
</linearGradient>
<linearGradient id="paint59_linear_29_71" x1="82.7411" y1="472.134" x2="82.7411" y2="419.278" gradientUnits="userSpaceOnUse">
<stop stop-color="#CAE1FB"/>
<stop offset="1" stop-color="#4F98ED"/>
</linearGradient>
<linearGradient id="paint60_linear_29_71" x1="172.318" y1="472.134" x2="172.318" y2="419.278" gradientUnits="userSpaceOnUse">
<stop stop-color="#CAE1FB"/>
<stop offset="1" stop-color="#4F98ED"/>
</linearGradient>
<linearGradient id="paint61_linear_29_71" x1="257.829" y1="472.134" x2="257.829" y2="419.278" gradientUnits="userSpaceOnUse">
<stop stop-color="#CAE1FB"/>
<stop offset="1" stop-color="#4F98ED"/>
</linearGradient>
<linearGradient id="paint62_linear_29_71" x1="515.023" y1="472.134" x2="515.023" y2="419.278" gradientUnits="userSpaceOnUse">
<stop stop-color="#CAE1FB"/>
<stop offset="1" stop-color="#4F98ED"/>
</linearGradient>
<linearGradient id="paint63_linear_29_71" x1="779.807" y1="472.134" x2="779.807" y2="419.278" gradientUnits="userSpaceOnUse">
<stop stop-color="#CAE1FB"/>
<stop offset="1" stop-color="#4F98ED"/>
</linearGradient>
<linearGradient id="paint64_linear_29_71" x1="866.318" y1="472.134" x2="866.318" y2="419.278" gradientUnits="userSpaceOnUse">
<stop stop-color="#CAE1FB"/>
<stop offset="1" stop-color="#4F98ED"/>
</linearGradient>
<linearGradient id="paint65_linear_29_71" x1="1048.01" y1="472.134" x2="1048.01" y2="419.278" gradientUnits="userSpaceOnUse">
<stop stop-color="#CAE1FB"/>
<stop offset="1" stop-color="#4F98ED"/>
</linearGradient>
<linearGradient id="paint66_linear_29_71" x1="1117.01" y1="472.134" x2="1117.01" y2="419.278" gradientUnits="userSpaceOnUse">
<stop stop-color="#CAE1FB"/>
<stop offset="1" stop-color="#4F98ED"/>
</linearGradient>
<linearGradient id="paint67_linear_29_71" x1="978.005" y1="472.134" x2="978.005" y2="419.278" gradientUnits="userSpaceOnUse">
<stop stop-color="#CAE1FB"/>
<stop offset="1" stop-color="#4F98ED"/>
</linearGradient>
<linearGradient id="paint68_linear_29_71" x1="1088.5" y1="41" x2="1147" y2="120.5" gradientUnits="userSpaceOnUse">
<stop stop-color="#38394B"/>
<stop offset="1" stop-color="#F1F2FF"/>
</linearGradient>
</defs>
</svg>
